<svg viewBox="0 0 24 24" xmlns="http://www.w3.org/2000/svg">
<path fill-rule="evenodd" clip-rule="evenodd" d="M13 5H8.5C7.96957 5 7.46086 5.21071 7.08579 5.58579C6.71071 5.96086 6.5 6.46957 6.5 7V17C6.5 17.5304 6.71071 18.0391 7.08579 18.4142C7.46086 18.7893 7.96957 19 8.5 19H15.5C16.0304 19 16.5391 18.7893 16.9142 18.4142C17.2893 18.0391 17.5 17.5304 17.5 17V9.707C17.4999 9.4418 17.3945 9.18749 17.207 9L13.707 5.293C13.5195 5.10545 13.2652 5.00006 13 5ZM13 8.5V6.5L16 9.5H14C13.7348 9.5 13.4804 9.39464 13.2929 9.20711C13.1054 9.01957 13 8.76522 13 8.5ZM10 10.9334C9.71597 10.9334 9.48571 11.1722 9.48571 11.4667C9.48571 11.7613 9.71597 12 10 12H14C14.284 12 14.5143 11.7613 14.5143 11.4667C14.5143 11.1722 14.284 10.9334 14 10.9334H10ZM9.48571 14.1334C9.48571 13.8388 9.71597 13.6 10 13.6H14C14.284 13.6 14.5143 13.8388 14.5143 14.1334C14.5143 14.4279 14.284 14.6667 14 14.6667H10C9.71597 14.6667 9.48571 14.4279 9.48571 14.1334ZM10 16.2667C9.71597 16.2667 9.48571 16.5055 9.48571 16.8C9.48571 17.0946 9.71597 17.3334 10 17.3334H14C14.284 17.3334 14.5143 17.0946 14.5143 16.8C14.5143 16.5055 14.284 16.2667 14 16.2667H10Z"/>
</svg>
