<svg
    viewBox="0 0 10 12"
    fill="none"
    xmlns="http://www.w3.org/2000/svg"
>
    <path
    d="M6.92206 5.71142H6.42206V6.21142V11.2764C6.42206 11.3702 6.32891 11.5 6.15344 11.5H3.84758C3.67211 11.5 3.57896 11.3702 3.57896 11.2764V6.21142V5.71142H3.07896H0.770567C0.63028 5.71142 0.550041 5.63869 0.517383 5.56433C0.500312 5.52547 0.496637 5.48711 0.502819 5.45389C0.508489 5.42342 0.524713 5.38395 0.570454 5.34088L0.586803 5.32549L0.601707 5.3087L4.81268 0.563544C4.91569 0.478818 5.08533 0.478819 5.18834 0.563545L9.39931 5.3087L9.41422 5.32549L9.43057 5.34089C9.47592 5.38358 9.49177 5.42253 9.49729 5.45259C9.50332 5.48551 9.49964 5.52402 9.48224 5.56342C9.44859 5.63962 9.36724 5.71142 9.23045 5.71142H6.92206Z"
    />
</svg>