<svg viewBox="0 0 24 24" xmlns="http://www.w3.org/2000/svg">
<path d="M16.7055 15.2939C17.0961 15.6845 17.0961 16.3172 16.7055 16.7078C16.5118 16.9031 16.2555 17 15.9993 17C15.7431 17 15.4875 16.9024 15.2925 16.7071L11.9996 13.4159L8.70706 16.7063C8.51176 16.9031 8.25584 17 7.99992 17C7.74401 17 7.4884 16.9031 7.29295 16.7063C6.90235 16.3157 6.90235 15.6829 7.29295 15.2923L10.5864 11.9988L7.29295 8.7069C6.90235 8.3163 6.90235 7.68354 7.29295 7.29295C7.68354 6.90235 8.3163 6.90235 8.7069 7.29295L11.9996 10.588L15.2931 7.29451C15.6837 6.90391 16.3165 6.90391 16.7071 7.29451C17.0977 7.6851 17.0977 8.31787 16.7071 8.70846L13.4136 12.002L16.7055 15.2939Z"/>
</svg>
