<svg width="24" height="24" viewBox="0 0 24 24" fill="none" xmlns="http://www.w3.org/2000/svg">
<path d="M7.5791 10.4353C7.80469 9.79663 8.1709 9.19605 8.68652 8.68335C10.5176 6.8523 13.4854 6.8523 15.3164 8.68335L15.8174 9.18726H14.3438C13.8252 9.18726 13.4062 9.6062 13.4062 10.1248C13.4062 10.6433 13.8252 11.0623 14.3438 11.0623H18.0791H18.0908C18.6094 11.0623 19.0283 10.6433 19.0283 10.1248V6.37476C19.0283 5.8562 18.6094 5.43726 18.0908 5.43726C17.5723 5.43726 17.1533 5.8562 17.1533 6.37476V7.87476L16.6406 7.35913C14.0771 4.79565 9.92285 4.79565 7.35938 7.35913C6.64453 8.07397 6.12891 8.91479 5.8125 9.81421C5.63965 10.3035 5.89746 10.8367 6.38379 11.0095C6.87012 11.1824 7.40625 10.9246 7.5791 10.4382V10.4353ZM5.64258 12.9753C5.49609 13.0193 5.35547 13.0984 5.24121 13.2156C5.12402 13.3328 5.04492 13.4734 5.00391 13.6257C4.99512 13.6609 4.98633 13.699 4.98047 13.7371C4.97168 13.7869 4.96875 13.8367 4.96875 13.8865V17.6248C4.96875 18.1433 5.3877 18.5623 5.90625 18.5623C6.4248 18.5623 6.84375 18.1433 6.84375 17.6248V16.1277L7.35938 16.6404C9.92285 19.2009 14.0771 19.2009 16.6377 16.6404C17.3525 15.9255 17.8711 15.0847 18.1875 14.1882C18.3604 13.699 18.1025 13.1658 17.6162 12.9929C17.1299 12.8201 16.5938 13.0779 16.4209 13.5642C16.1953 14.2029 15.8291 14.8035 15.3135 15.3162C13.4824 17.1472 10.5146 17.1472 8.68359 15.3162L8.68066 15.3132L8.17969 14.8123H9.65625C10.1748 14.8123 10.5938 14.3933 10.5938 13.8748C10.5938 13.3562 10.1748 12.9373 9.65625 12.9373H5.91797C5.87109 12.9373 5.82422 12.9402 5.77734 12.946C5.73047 12.9519 5.68652 12.9607 5.64258 12.9753Z" fill="#55585E"/>
</svg>
