<svg viewBox="0 0 24 24" xmlns="http://www.w3.org/2000/svg">
<path d="M10.0112 6.75H13.9487V5.65625C13.9487 5.29395 14.2413 5 14.605 5C14.9687 5 15.2612 5.29395 15.2612 5.65625V6.75H16.355C17.3202 6.75 18.105 7.5334 18.105 8.5V17.25C18.105 18.2152 17.3202 19 16.355 19H7.60498C6.63838 19 5.85498 18.2152 5.85498 17.25V8.5C5.85498 7.5334 6.63838 6.75 7.60498 6.75H8.69873V5.65625C8.69873 5.29395 8.99131 5 9.35498 5C9.71865 5 10.0112 5.29395 10.0112 5.65625V6.75ZM7.16748 17.25C7.16748 17.4906 7.36326 17.6875 7.60498 17.6875H16.355C16.5956 17.6875 16.7925 17.4906 16.7925 17.25V10.25H7.16748V17.25Z" />
</svg>
