<svg width="24" height="24" viewBox="0 0 24 24" fill="none" xmlns="http://www.w3.org/2000/svg">
<path fill-rule="evenodd" clip-rule="evenodd" d="M12.2563 5.43164C8.39035 5.43164 5.25635 8.56565 5.25635 12.4316C5.25635 16.2976 8.39035 19.4316 12.2563 19.4316C16.1223 19.4316 19.2563 16.2976 19.2563 12.4316C19.2563 8.56565 16.1223 5.43164 12.2563 5.43164ZM3.25635 12.4316C3.25635 7.46108 7.28578 3.43164 12.2563 3.43164C17.2269 3.43164 21.2563 7.46108 21.2563 12.4316C21.2563 17.4022 17.2269 21.4316 12.2563 21.4316C7.28578 21.4316 3.25635 17.4022 3.25635 12.4316Z" fill="#55585E"/>
<path fill-rule="evenodd" clip-rule="evenodd" d="M12.2563 7.93164C12.8086 7.93164 13.2563 8.37936 13.2563 8.93164V13.0636L15.2036 14.0372C15.6975 14.2842 15.8978 14.8849 15.6508 15.3789C15.4038 15.8728 14.8031 16.0731 14.3091 15.8261L11.8091 14.5761C11.4704 14.4067 11.2563 14.0604 11.2563 13.6816V8.93164C11.2563 8.37936 11.7041 7.93164 12.2563 7.93164Z" fill="#55585E"/>
</svg>
