<svg width="24" height="24" viewBox="0 0 24 24" fill="none" xmlns="http://www.w3.org/2000/svg">
<path d="M9.71429 5.14286C9.71429 4.51071 9.20357 4 8.57143 4C7.93929 4 7.42857 4.51071 7.42857 5.14286V7.42857H5.14286C4.51071 7.42857 4 7.93929 4 8.57143C4 9.20357 4.51071 9.71429 5.14286 9.71429H8.57143C9.20357 9.71429 9.71429 9.20357 9.71429 8.57143V5.14286ZM5.14286 14.2857C4.51071 14.2857 4 14.7964 4 15.4286C4 16.0607 4.51071 16.5714 5.14286 16.5714H7.42857V18.8571C7.42857 19.4893 7.93929 20 8.57143 20C9.20357 20 9.71429 19.4893 9.71429 18.8571V15.4286C9.71429 14.7964 9.20357 14.2857 8.57143 14.2857H5.14286ZM16.5714 5.14286C16.5714 4.51071 16.0607 4 15.4286 4C14.7964 4 14.2857 4.51071 14.2857 5.14286V8.57143C14.2857 9.20357 14.7964 9.71429 15.4286 9.71429H18.8571C19.4893 9.71429 20 9.20357 20 8.57143C20 7.93929 19.4893 7.42857 18.8571 7.42857H16.5714V5.14286ZM15.4286 14.2857C14.7964 14.2857 14.2857 14.7964 14.2857 15.4286V18.8571C14.2857 19.4893 14.7964 20 15.4286 20C16.0607 20 16.5714 19.4893 16.5714 18.8571V16.5714H18.8571C19.4893 16.5714 20 16.0607 20 15.4286C20 14.7964 19.4893 14.2857 18.8571 14.2857H15.4286Z" fill="#55585E"/>
</svg>
