<svg width="12" height="16" viewBox="0 0 12 16" fill="none" xmlns="http://www.w3.org/2000/svg">
<path d="M1.06667 0C0.476667 0 0 0.501168 0 1.1215V3.36449C0 3.98481 0.476667 4.48598 1.06667 4.48598C1.65667 4.48598 2.13333 3.98481 2.13333 3.36449V2.24299H4.93333V13.757H3.86667C3.27667 13.757 2.8 14.2582 2.8 14.8785C2.8 15.4988 3.27667 16 3.86667 16H8.13333C8.72333 16 9.2 15.4988 9.2 14.8785C9.2 14.2582 8.72333 13.757 8.13333 13.757H7.06667V2.24299H9.86667V3.36449C9.86667 3.98481 10.3433 4.48598 10.9333 4.48598C11.5233 4.48598 12 3.98481 12 3.36449V1.1215C12 0.501168 11.5233 0 10.9333 0H6H1.06667Z" fill="#55585E"/>
</svg>
