<svg width="36" height="36" viewBox="0 0 36 36" fill="none" xmlns="http://www.w3.org/2000/svg">
<rect width="36" height="36" rx="4" fill="#F0F0F0"/>
<path d="M11.1429 10C10.5107 10 10 10.5107 10 11.1429V14.5714C10 15.2036 10.5107 15.7143 11.1429 15.7143C11.775 15.7143 12.2857 15.2036 12.2857 14.5714V12.2857H14.5714C15.2036 12.2857 15.7143 11.775 15.7143 11.1429C15.7143 10.5107 15.2036 10 14.5714 10H11.1429ZM12.2857 21.4286C12.2857 20.7964 11.775 20.2857 11.1429 20.2857C10.5107 20.2857 10 20.7964 10 21.4286V24.8571C10 25.4893 10.5107 26 11.1429 26H14.5714C15.2036 26 15.7143 25.4893 15.7143 24.8571C15.7143 24.225 15.2036 23.7143 14.5714 23.7143H12.2857V21.4286ZM21.4286 10C20.7964 10 20.2857 10.5107 20.2857 11.1429C20.2857 11.775 20.7964 12.2857 21.4286 12.2857H23.7143V14.5714C23.7143 15.2036 24.225 15.7143 24.8571 15.7143C25.4893 15.7143 26 15.2036 26 14.5714V11.1429C26 10.5107 25.4893 10 24.8571 10H21.4286ZM26 21.4286C26 20.7964 25.4893 20.2857 24.8571 20.2857C24.225 20.2857 23.7143 20.7964 23.7143 21.4286V23.7143H21.4286C20.7964 23.7143 20.2857 24.225 20.2857 24.8571C20.2857 25.4893 20.7964 26 21.4286 26H24.8571C25.4893 26 26 25.4893 26 24.8571V21.4286Z" fill="#55585E"/>
</svg>
