<svg width="36" height="36" viewBox="0 0 36 36" fill="none" xmlns="http://www.w3.org/2000/svg">
<rect width="36" height="36" rx="4" fill="#F0F0F0"/>
<path d="M9.06667 10C8.47667 10 8 10.5012 8 11.1215V13.3645C8 13.9848 8.47667 14.486 9.06667 14.486C9.65667 14.486 10.1333 13.9848 10.1333 13.3645V12.243H12.9333V23.757H11.8667C11.2767 23.757 10.8 24.2582 10.8 24.8785C10.8 25.4988 11.2767 26 11.8667 26H16.1333C16.7233 26 17.2 25.4988 17.2 24.8785C17.2 24.2582 16.7233 23.757 16.1333 23.757H15.0667V12.243H17.8667V13.3645C17.8667 13.9848 18.3433 14.486 18.9333 14.486C19.5233 14.486 20 13.9848 20 13.3645V11.1215C20 10.5012 19.5233 10 18.9333 10H14H9.06667Z" fill="#55585E"/>
<path d="M19.0664 16.5C18.4764 16.5 17.9998 17.0012 17.9998 17.6215V19C17.9998 19.6203 18.4764 20.1215 19.0664 20.1215C19.6564 20.1215 20.1331 19.6203 20.1331 19V18.743H21.9333L21.9333 23.757H20.8666C20.2766 23.757 19.8 24.2582 19.8 24.8785C19.8 25.4988 20.2766 26 20.8666 26H25.1333C25.7233 26 26.2 25.4988 26.2 24.8785C26.2 24.2582 25.7233 23.757 25.1333 23.757H24.0666L24.0667 18.743H25.8666V19C25.8666 19.6203 26.3433 20.1215 26.9333 20.1215C27.5233 20.1215 28 19.6203 28 19V17.6215C28 17.0012 27.5233 16.5 26.9333 16.5H23H19.0664Z" fill="#55585E"/>
</svg>
