<svg width="18" height="16" viewBox="0 0 18 16" fill="none" xmlns="http://www.w3.org/2000/svg">
<path fill-rule="evenodd" clip-rule="evenodd" d="M8.62495 0.200195C7.97019 0.200195 7.44995 0.727798 7.44995 1.34679V2.4161H1.87495C1.22019 2.4161 0.699951 2.94371 0.699951 3.5627C0.699951 4.18168 1.22019 4.70929 1.87495 4.70929H13.0015L12.5648 5.69327C11.8471 7.31016 10.8543 8.78149 9.63589 10.0492L9.14487 10.5601L7.22439 8.66868C6.76562 8.21686 6.01241 8.21686 5.55363 8.66868C5.10081 9.11464 5.10081 9.83816 5.55363 10.2841L7.33273 12.0363L6.57403 12.5049C5.9882 12.8667 5.37804 13.1763 4.75709 13.4534L4.75252 13.4554L4.4156 13.6029C3.81512 13.8663 3.55927 14.5437 3.81585 15.1108C4.07872 15.6919 4.77405 15.9624 5.37181 15.7001L5.70892 15.5525C6.80045 15.0728 7.82024 14.4952 8.77788 13.8279L9.17528 13.5509L9.57449 13.8253C9.96536 14.0938 10.355 14.3437 10.7623 14.5843L12.5323 15.6266C13.0895 15.9532 13.8249 15.7649 14.1479 15.2309C14.4702 14.698 14.301 13.9956 13.7443 13.6663L11.9824 12.6289C11.9024 12.5851 11.7979 12.5279 11.6908 12.4575L10.9983 12.0028L11.5621 11.3959C13.1113 9.72831 14.3277 7.7588 15.13 5.59355L15.4459 4.71852H16.125C16.7797 4.71852 17.2999 4.19092 17.2999 3.57193C17.2999 2.95294 16.7797 2.42534 16.125 2.42534H9.79995V1.35602C9.79995 0.732522 9.27515 0.200195 8.62495 0.200195Z" fill="#55585E"/>
</svg>
