<svg width="12" height="14" viewBox="0 0 12 14" fill="none" xmlns="http://www.w3.org/2000/svg">
<path fill-rule="evenodd" clip-rule="evenodd" d="M7 0H2.5C1.96957 0 1.46086 0.210714 1.08579 0.585786C0.710714 0.960859 0.5 1.46957 0.5 2V12C0.5 12.5304 0.710714 13.0391 1.08579 13.4142C1.46086 13.7893 1.96957 14 2.5 14H9.5C10.0304 14 10.5391 13.7893 10.9142 13.4142C11.2893 13.0391 11.5 12.5304 11.5 12V4.707C11.4999 4.4418 11.3945 4.18749 11.207 4L7.707 0.293C7.51951 0.105451 7.26519 5.65847e-05 7 0ZM7 3.5V1.5L10 4.5H8C7.73478 4.5 7.48043 4.39464 7.29289 4.20711C7.10536 4.01957 7 3.76522 7 3.5ZM4 5.93338C3.71597 5.93338 3.48571 6.17216 3.48571 6.46671C3.48571 6.76126 3.71597 7.00004 4 7.00004H8C8.28403 7.00004 8.51429 6.76126 8.51429 6.46671C8.51429 6.17216 8.28403 5.93338 8 5.93338H4ZM3.48571 9.13338C3.48571 8.83883 3.71597 8.60004 4 8.60004H8C8.28403 8.60004 8.51429 8.83883 8.51429 9.13338C8.51429 9.42793 8.28403 9.66671 8 9.66671H4C3.71597 9.66671 3.48571 9.42793 3.48571 9.13338ZM4 11.2667C3.71597 11.2667 3.48571 11.5055 3.48571 11.8C3.48571 12.0946 3.71597 12.3334 4 12.3334H8C8.28403 12.3334 8.51429 12.0946 8.51429 11.8C8.51429 11.5055 8.28403 11.2667 8 11.2667H4Z" fill="#55585E"/>
</svg>
