<svg width="24" height="24" viewBox="0 0 24 24" fill="none" xmlns="http://www.w3.org/2000/svg">
<path d="M8.19702 4.46967C7.90413 4.17678 7.42925 4.17678 7.13636 4.46967L4.46969 7.13634C4.25519 7.35083 4.19103 7.67342 4.30711 7.95368C4.4232 8.23393 4.69668 8.41667 5.00002 8.41667H6.6665V10.5C6.6665 11.0523 7.11422 11.5 7.6665 11.5C8.21879 11.5 8.6665 11.0523 8.6665 10.5V8.41667H10.3334C10.6367 8.41667 10.9102 8.23393 11.0263 7.95368C11.1424 7.67342 11.0782 7.35083 10.8637 7.13634L8.19702 4.46967Z" fill="#55585E"/>
<path d="M16.8638 8.46969C16.6493 8.25519 16.3267 8.19103 16.0465 8.30711C15.7662 8.4232 15.5835 8.69668 15.5835 9.00002V10.7882C13.899 11.0787 12.3321 11.8829 11.1073 13.1078C9.54448 14.6706 8.6665 16.7902 8.6665 19.0003C8.6665 19.5526 9.11422 20.0003 9.6665 20.0003C10.2188 20.0003 10.6665 19.5526 10.6665 19.0003C10.6665 17.3206 11.3338 15.7097 12.5215 14.522C13.3695 13.674 14.4331 13.0913 15.5835 12.8274V14.3334C15.5835 14.6367 15.7662 14.9102 16.0465 15.0263C16.3267 15.1424 16.6493 15.0782 16.8638 14.8637L19.5305 12.197C19.8234 11.9041 19.8234 11.4293 19.5305 11.1364L16.8638 8.46969Z" fill="#55585E"/>
</svg>
