<svg viewBox="0 0 24 24" fill="none" xmlns="http://www.w3.org/2000/svg">
<path d="M20 12C20 16.4194 16.4194 20 12 20C7.58065 20 4 16.4194 4 12C4 7.58065 7.58065 4 12 4C16.4194 4 20 7.58065 20 12ZM10.5806 8.25806V12H8.29355C7.94839 12 7.77419 12.4194 8.01935 12.6613L11.7258 16.3484C11.8774 16.5 12.1194 16.5 12.271 16.3484L15.9774 12.6613C16.2226 12.4161 16.0484 12 15.7032 12H13.4194V8.25806C13.4194 8.04516 13.2452 7.87097 13.0323 7.87097H10.9677C10.7548 7.87097 10.5806 8.04516 10.5806 8.25806Z"/>
</svg>
