<svg viewBox="0 0 10 12" fill="none" xmlns="http://www.w3.org/2000/svg">
<path d="M3.07794 6.28858L3.57794 6.28858L3.57794 5.78858L3.57794 0.723571C3.57794 0.62977 3.67109 0.499999 3.84656 0.499999L6.15242 0.5C6.32789 0.5 6.42104 0.629769 6.42104 0.723571L6.42104 5.78858L6.42104 6.28858L6.92104 6.28858L9.22943 6.28858C9.36972 6.28858 9.44996 6.36131 9.48262 6.43567C9.49969 6.47453 9.50336 6.51289 9.49718 6.54611C9.49151 6.57658 9.47529 6.61605 9.42955 6.65912L9.4132 6.67451L9.39829 6.6913L5.18732 11.4365C5.08431 11.5212 4.91467 11.5212 4.81166 11.4365L0.600687 6.6913L0.585783 6.6745L0.569435 6.65911C0.524083 6.61642 0.508226 6.57747 0.502715 6.54741C0.496679 6.51449 0.500365 6.47598 0.517762 6.43658C0.551415 6.36038 0.632759 6.28858 0.769548 6.28858L3.07794 6.28858Z"/>
</svg>
