<svg width="24" height="24" viewBox="0 0 24 24" fill="none" xmlns="http://www.w3.org/2000/svg">
<path fill-rule="evenodd" clip-rule="evenodd" d="M4.30304 5.80311C4.75313 5.35303 5.36358 5.10017 6.0001 5.10017H10.5001C10.9972 5.10017 11.4001 5.50311 11.4001 6.00017C11.4001 6.49723 10.9972 6.90017 10.5001 6.90017H6.0001C5.84097 6.90017 5.68836 6.96338 5.57583 7.07591C5.46331 7.18843 5.4001 7.34104 5.4001 7.50017V18.0002C5.4001 18.1593 5.46331 18.3119 5.57583 18.4244C5.68836 18.537 5.84097 18.6002 6.0001 18.6002H16.5001C16.6592 18.6002 16.8118 18.537 16.9244 18.4244C17.0369 18.3119 17.1001 18.1593 17.1001 18.0002V13.5002C17.1001 13.0031 17.503 12.6002 18.0001 12.6002C18.4972 12.6002 18.9001 13.0031 18.9001 13.5002V18.0002C18.9001 18.6367 18.6472 19.2471 18.1972 19.6972C17.7471 20.1473 17.1366 20.4002 16.5001 20.4002H6.0001C5.36358 20.4002 4.75313 20.1473 4.30304 19.6972C3.85295 19.2471 3.6001 18.6367 3.6001 18.0002V7.50017C3.6001 6.86365 3.85295 6.2532 4.30304 5.80311Z" fill="#55585E"/>
<path fill-rule="evenodd" clip-rule="evenodd" d="M16.5215 4.52162C16.9137 4.12948 17.4455 3.90918 18.0001 3.90918C18.5547 3.90918 19.0865 4.12948 19.4787 4.52162C19.8708 4.91375 20.0911 5.4456 20.0911 6.00017C20.0911 6.55474 19.8708 7.08659 19.4787 7.47872L12.3537 14.6037C12.2896 14.6678 12.2093 14.7133 12.1214 14.7352L9.12137 15.4852C8.95098 15.5278 8.77073 15.4779 8.64654 15.3537C8.52235 15.2295 8.47243 15.0493 8.51503 14.8789L9.26503 11.8789C9.28701 11.791 9.33247 11.7107 9.39654 11.6466L16.5215 4.52162Z" fill="#55585E"/>
</svg>
