<svg viewBox="0 0 24 24" xmlns="http://www.w3.org/2000/svg">
<path d="M12 15.4286C13.1046 15.4286 14 16.325 14 17.4286C14 18.5321 13.1046 19.4286 12 19.4286C10.8954 19.4286 10 18.5321 10 17.4286C10 16.325 10.8954 15.4286 12 15.4286ZM12 9.71429C13.1046 9.71429 14 10.6107 14 11.7143C14 12.8179 13.1046 13.7143 12 13.7143C10.8954 13.7143 10 12.8179 10 11.7143C10 10.6107 10.8954 9.71429 12 9.71429ZM12 8C10.8954 8 10 7.10357 10 6C10 4.89536 10.8954 4 12 4C13.1046 4 14 4.89536 14 6C14 7.10357 13.1046 8 12 8Z" />
</svg>
