<svg width="24" height="24" viewBox="0 0 24 24" fill="none" xmlns="http://www.w3.org/2000/svg">
<path d="M5.14286 4C4.51071 4 4 4.51071 4 5.14286V8.57143C4 9.20357 4.51071 9.71429 5.14286 9.71429C5.775 9.71429 6.28571 9.20357 6.28571 8.57143V6.28571H8.57143C9.20357 6.28571 9.71429 5.775 9.71429 5.14286C9.71429 4.51071 9.20357 4 8.57143 4H5.14286ZM6.28571 15.4286C6.28571 14.7964 5.775 14.2857 5.14286 14.2857C4.51071 14.2857 4 14.7964 4 15.4286V18.8571C4 19.4893 4.51071 20 5.14286 20H8.57143C9.20357 20 9.71429 19.4893 9.71429 18.8571C9.71429 18.225 9.20357 17.7143 8.57143 17.7143H6.28571V15.4286ZM15.4286 4C14.7964 4 14.2857 4.51071 14.2857 5.14286C14.2857 5.775 14.7964 6.28571 15.4286 6.28571H17.7143V8.57143C17.7143 9.20357 18.225 9.71429 18.8571 9.71429C19.4893 9.71429 20 9.20357 20 8.57143V5.14286C20 4.51071 19.4893 4 18.8571 4H15.4286ZM20 15.4286C20 14.7964 19.4893 14.2857 18.8571 14.2857C18.225 14.2857 17.7143 14.7964 17.7143 15.4286V17.7143H15.4286C14.7964 17.7143 14.2857 18.225 14.2857 18.8571C14.2857 19.4893 14.7964 20 15.4286 20H18.8571C19.4893 20 20 19.4893 20 18.8571V15.4286Z" fill="#55585E"/>
</svg>
