<svg width="24" height="24" viewBox="0 0 24 24" fill="none" xmlns="http://www.w3.org/2000/svg">
<path d="M8.23436 10.2349C8.5471 9.92216 9.05334 9.92266 9.36559 10.2349L11.1999 12.0699V5.79999C11.1999 5.35775 11.5577 5 11.9999 5C12.4422 5 12.7999 5.35775 12.7999 5.79999V12.0699L14.6344 10.2354C14.9469 9.92291 15.4531 9.92291 15.7656 10.2354C16.0781 10.5479 16.0781 11.0541 15.7656 11.3666L12.5657 14.5666C12.2532 14.8791 11.7469 14.8791 11.4344 14.5666L8.23448 11.3666C7.92186 11.0524 7.92186 10.5474 8.23436 10.2349Z" fill="#55585E"/>
<path fill-rule="evenodd" clip-rule="evenodd" d="M5.20001 18C5.20001 17.5581 5.55818 17.2 6.00001 17.2H18C18.4418 17.2 18.8 17.5581 18.8 18C18.8 18.4418 18.4418 18.8 18 18.8H6.00001C5.55818 18.8 5.20001 18.4418 5.20001 18Z" fill="#55585E"/>
</svg>
