<svg width="24" height="24" viewBox="0 0 24 24" fill="none" xmlns="http://www.w3.org/2000/svg">
<path d="M7.76746 7.91883C8.87495 7.05634 10.2949 6.3996 11.9999 6.3996C14.0199 6.3996 15.6374 7.32059 16.8149 8.41458C17.9849 9.49957 18.7674 10.7771 19.1374 11.6921C19.2199 11.8896 19.2199 12.1095 19.1374 12.307C18.8024 13.1145 18.1299 14.252 17.1399 15.267L19.7699 17.327C20.0299 17.532 20.0774 17.9095 19.8724 18.1695C19.6674 18.4295 19.2899 18.477 19.0299 18.272L4.22989 6.67185C3.9691 6.46735 3.92337 6.09035 4.12779 5.8295C4.33224 5.56871 4.70924 5.52298 4.97024 5.7274L7.76746 7.91883ZM9.57745 9.33707L11.8349 11.1071C11.9399 10.8946 11.9999 10.6546 11.9999 10.3771C11.9999 10.1121 11.9024 9.84207 11.7899 9.60957C11.8599 9.60207 11.9299 9.57707 11.9999 9.57707C13.3249 9.57707 14.3999 10.6521 14.3999 11.977C14.3999 12.342 14.3274 12.667 14.1774 12.962L15.1649 13.717C15.4424 13.207 15.5999 12.622 15.5999 11.977C15.5999 10.0121 13.9874 8.37708 11.9999 8.37708C11.0674 8.37708 10.2149 8.75458 9.57745 9.33707ZM11.9999 17.5995C9.97994 17.5995 8.36246 16.6795 7.18497 15.5845C6.01548 14.477 5.23348 13.1995 4.86149 12.307C4.77949 12.1095 4.77949 11.8896 4.86149 11.6921C5.09999 11.1196 5.50723 10.3796 6.07723 9.63707L8.43496 11.4946C8.41246 11.6596 8.39996 11.8271 8.39996 11.977C8.39996 13.987 10.0124 15.5995 11.9999 15.5995C12.4674 15.5995 12.9149 15.5095 13.3249 15.347L15.1549 16.787C14.2474 17.277 13.1949 17.5995 11.9999 17.5995Z" fill="#AAAAAA"/>
</svg>
