<svg width="24" height="24" viewBox="0 0 24 24" fill="none" xmlns="http://www.w3.org/2000/svg">
<path d="M11.7816 9.50991C11.8545 9.5021 11.9274 9.49949 12.0003 9.49949C13.3806 9.49949 14.5004 10.5959 14.5004 11.9996C14.5004 13.3799 13.3806 14.4997 12.0003 14.4997C10.5966 14.4997 9.50022 13.3799 9.50022 11.9996C9.50022 11.9267 9.50282 11.8538 9.51064 11.7808C9.75283 11.898 10.0341 11.9996 10.3336 11.9996C11.2529 11.9996 12.0003 11.2522 12.0003 10.3329C12.0003 10.0334 11.8988 9.75211 11.7816 9.50991ZM17.0162 8.26506C18.235 9.39532 19.0501 10.7261 19.4355 11.6793C19.5215 11.885 19.5215 12.1142 19.4355 12.3199C19.0501 13.2497 18.235 14.5804 17.0162 15.7341C15.7896 16.8748 14.1046 17.8332 12.0003 17.8332C9.89607 17.8332 8.2111 16.8748 6.98501 15.7341C5.7662 14.5804 4.95159 13.2497 4.56409 12.3199C4.47864 12.1142 4.47864 11.885 4.56409 11.6793C4.95159 10.7261 5.7662 9.39532 6.98501 8.26506C8.2111 7.12543 9.89607 6.16602 12.0003 6.16602C14.1046 6.16602 15.7896 7.12543 17.0162 8.26506ZM12.0003 8.24944C9.92993 8.24944 8.25017 9.9292 8.25017 11.9996C8.25017 14.07 9.92993 15.7498 12.0003 15.7498C14.0707 15.7498 15.7505 14.07 15.7505 11.9996C15.7505 9.9292 14.0707 8.24944 12.0003 8.24944Z" fill="#AAAAAA"/>
</svg>
