<?xml version="1.0" encoding="utf-8"?>
<!-- Generator: Adobe Illustrator 16.0.0, SVG Export Plug-In . SVG Version: 6.00 Build 0)  -->
<!DOCTYPE svg PUBLIC "-//W3C//DTD SVG 1.1//EN" "http://www.w3.org/Graphics/SVG/1.1/DTD/svg11.dtd">
<svg version="1.1" id="圖層_1" xmlns="http://www.w3.org/2000/svg" xmlns:xlink="http://www.w3.org/1999/xlink" x="0px" y="0px"
	 width="24px" height="24px" viewBox="0 0 24 24" enable-background="new 0 0 24 24" xml:space="preserve">
<path fill="#55585E" d="M17.219,9.002l-3.493-3.69C13.537,5.113,13.274,5,13,5H8.5c-1.104,0-2,0.896-2,2v10c0,1.104,0.896,2,2,2h7
	c1.104,0,2-0.896,2-2V9.71C17.5,9.447,17.398,9.193,17.219,9.002z M14.369,17.18c-0.094,0.097-0.223,0.156-0.365,0.156h-2h-2
	c-0.142,0-0.271-0.06-0.363-0.156C9.548,17.084,9.49,16.95,9.49,16.803s0.058-0.281,0.151-0.377
	c0.093-0.097,0.221-0.156,0.363-0.156h2h2c0.143,0,0.271,0.06,0.365,0.156c0.093,0.096,0.15,0.229,0.15,0.377
	S14.462,17.084,14.369,17.18z M14.369,14.51c-0.094,0.097-0.223,0.156-0.365,0.156h-2h-2c-0.142,0-0.271-0.06-0.363-0.156
	C9.548,14.414,9.49,14.28,9.49,14.133s0.058-0.281,0.151-0.377c0.093-0.097,0.221-0.156,0.363-0.156h2h2
	c0.143,0,0.271,0.06,0.365,0.156c0.093,0.096,0.15,0.229,0.15,0.377S14.462,14.414,14.369,14.51z M14.369,11.84
	c-0.094,0.097-0.223,0.156-0.365,0.156h-2h-2c-0.142,0-0.271-0.06-0.363-0.156c-0.093-0.097-0.151-0.23-0.151-0.377
	s0.058-0.28,0.151-0.377c0.093-0.097,0.221-0.156,0.363-0.156h2h2c0.143,0,0.271,0.06,0.365,0.156
	c0.093,0.097,0.15,0.229,0.15,0.377S14.462,11.744,14.369,11.84z M15,9.5h-1c-0.133,0-0.263-0.026-0.383-0.076
	s-0.23-0.123-0.324-0.217s-0.167-0.204-0.217-0.324S13,8.633,13,8.5v-1v-1L14.5,8L16,9.5H15z"/>
</svg>
