<svg width="24" height="24" viewBox="0 0 24 24" fill="none" xmlns="http://www.w3.org/2000/svg">
<path d="M3.06667 4C2.47667 4 2 4.50117 2 5.1215V7.36449C2 7.98481 2.47667 8.48598 3.06667 8.48598C3.65667 8.48598 4.13333 7.98481 4.13333 7.36449V6.24299H6.93333V17.757H5.86667C5.27667 17.757 4.8 18.2582 4.8 18.8785C4.8 19.4988 5.27667 20 5.86667 20H10.1333C10.7233 20 11.2 19.4988 11.2 18.8785C11.2 18.2582 10.7233 17.757 10.1333 17.757H9.06667V6.24299H11.8667V7.36449C11.8667 7.98481 12.3433 8.48598 12.9333 8.48598C13.5233 8.48598 14 7.98481 14 7.36449V5.1215C14 4.50117 13.5233 4 12.9333 4H8H3.06667Z" fill="#55585E"/>
<path d="M13.0665 10.5C12.4765 10.5 11.9998 11.0012 11.9998 11.6215V13C11.9998 13.6203 12.4765 14.1215 13.0665 14.1215C13.6565 14.1215 14.1332 13.6203 14.1332 13V12.743H15.9334L15.9333 17.757H14.8667C14.2767 17.757 13.8 18.2582 13.8 18.8785C13.8 19.4988 14.2767 20 14.8667 20H19.1333C19.7233 20 20.2 19.4988 20.2 18.8785C20.2 18.2582 19.7233 17.757 19.1333 17.757H18.0667L18.0667 12.743H19.8667V13C19.8667 13.6203 20.3434 14.1215 20.9334 14.1215C21.5234 14.1215 22 13.6203 22 13V11.6215C22 11.0012 21.5234 10.5 20.9334 10.5H17H13.0665Z" fill="#55585E"/>
</svg>
