<svg width="24" height="24" viewBox="0 0 24 24" fill="none" xmlns="http://www.w3.org/2000/svg">
<path fill-rule="evenodd" clip-rule="evenodd" d="M11.625 4.2002C10.9702 4.2002 10.45 4.7278 10.45 5.34679V6.4161H4.87495C4.22019 6.4161 3.69995 6.94371 3.69995 7.5627C3.69995 8.18168 4.22019 8.70929 4.87495 8.70929H16.0015L15.5648 9.69327C14.8471 11.3102 13.8543 12.7815 12.6359 14.0492L12.1449 14.5601L10.2244 12.6687C9.76562 12.2169 9.01241 12.2169 8.55363 12.6687C8.10081 13.1146 8.10081 13.8382 8.55363 14.2841L10.3327 16.0363L9.57403 16.5049C8.9882 16.8667 8.37804 17.1763 7.75709 17.4534L7.75252 17.4554L7.4156 17.6029C6.81512 17.8663 6.55927 18.5437 6.81585 19.1108C7.07872 19.6919 7.77405 19.9624 8.37181 19.7001L8.70892 19.5525C9.80045 19.0728 10.8202 18.4952 11.7779 17.8279L12.1753 17.5509L12.5745 17.8253C12.9654 18.0938 13.355 18.3437 13.7623 18.5843L15.5323 19.6266C16.0895 19.9532 16.8249 19.7649 17.1479 19.2309C17.4702 18.698 17.301 17.9956 16.7443 17.6663L14.9824 16.6289C14.9024 16.5851 14.7979 16.5279 14.6908 16.4575L13.9983 16.0028L14.5621 15.3959C16.1113 13.7283 17.3277 11.7588 18.13 9.59355L18.4459 8.71852H19.125C19.7797 8.71852 20.2999 8.19092 20.2999 7.57193C20.2999 6.95294 19.7797 6.42534 19.125 6.42534H12.8V5.35602C12.8 4.73252 12.2752 4.2002 11.625 4.2002Z" fill="#55585E"/>
</svg>
