<svg width="24" height="24" viewBox="0 0 24 24" fill="none" xmlns="http://www.w3.org/2000/svg">
<path d="M11.0767 3.21993C11.4183 2.39864 12.5817 2.39864 12.9233 3.21993L14.675 7.4314C14.819 7.77764 15.1446 8.01421 15.5184 8.04418L20.065 8.40868C20.9517 8.47976 21.3112 9.58627 20.6357 10.1649L17.1716 13.1323C16.8868 13.3762 16.7624 13.759 16.8495 14.1238L17.9078 18.5605C18.1142 19.4257 17.1729 20.1096 16.4138 19.6459L12.5213 17.2684C12.2012 17.0729 11.7988 17.0729 11.4787 17.2684L7.58619 19.6459C6.82709 20.1096 5.88583 19.4257 6.09222 18.5605L7.15055 14.1238C7.23756 13.759 7.11318 13.3762 6.8284 13.1323L3.36434 10.1649C2.6888 9.58627 3.04832 8.47976 3.93498 8.40868L8.48162 8.04418C8.85541 8.01421 9.18102 7.77764 9.32503 7.43141L11.0767 3.21993Z" fill="#FBFBF9" stroke="#FAAF1D" stroke-width="1.5"/>
<path d="M11.9865 3.49609L11.9868 2.59961C11.6105 2.59954 11.2341 2.80486 11.0633 3.21558L9.31165 7.42705C9.16764 7.77329 8.84203 8.00986 8.46824 8.03983L3.9216 8.40433C3.03495 8.47541 2.67542 9.58192 3.35095 10.1606L6.81502 13.1279C7.09981 13.3719 7.22418 13.7547 7.13717 14.1194L6.07884 18.5562C5.87246 19.4214 6.81371 20.1052 7.57281 19.6416L11.9865 16.95V3.49609Z" fill="#FAAF1D"/>
</svg>
