<svg width="16" height="14" viewBox="0 0 16 14" fill="none" xmlns="http://www.w3.org/2000/svg">
<path d="M15.9944 6.98633C15.9944 7.47852 15.5778 7.86406 15.1056 7.86406H14.2167L14.2361 12.2445C14.2361 12.3184 14.2306 12.3922 14.2222 12.466V12.9062C14.2222 13.5105 13.725 14 13.1111 14H12.6667C12.6361 14 12.6056 14 12.575 13.9973C12.5361 14 12.4972 14 12.4583 14H11.5556H10.8889C10.275 14 9.77778 13.5105 9.77778 12.9062V12.25V10.5C9.77778 10.016 9.38056 9.625 8.88889 9.625H7.11111C6.61944 9.625 6.22222 10.016 6.22222 10.5V12.25V12.9062C6.22222 13.5105 5.725 14 5.11111 14H4.44444H3.55833C3.51667 14 3.475 13.9973 3.43333 13.9945C3.4 13.9973 3.36667 14 3.33333 14H2.88889C2.275 14 1.77778 13.5105 1.77778 12.9062V9.84375C1.77778 9.81914 1.77778 9.7918 1.78056 9.76719V7.86406H0.888889C0.388889 7.86406 0 7.48125 0 6.98633C0 6.74023 0.0833333 6.52148 0.277778 6.33008L7.4 0.21875C7.59444 0.0273438 7.81667 0 8.01111 0C8.20555 0 8.42778 0.0546875 8.59444 0.191406L15.6889 6.33008C15.9111 6.52148 16.0222 6.74023 15.9944 6.98633Z" fill="#55585E"/>
</svg>
