<svg viewBox="0 0 24 24" xmlns="http://www.w3.org/2000/svg">
<path d="M19.9944 11.9863C19.9944 12.4785 19.5778 12.8641 19.1056 12.8641H18.2167L18.2361 17.2445C18.2361 17.3184 18.2306 17.3922 18.2222 17.466V17.9062C18.2222 18.5105 17.725 19 17.1111 19H16.6667C16.6361 19 16.6056 19 16.575 18.9973C16.5361 19 16.4972 19 16.4583 19H15.5556H14.8889C14.275 19 13.7778 18.5105 13.7778 17.9062V17.25V15.5C13.7778 15.016 13.3806 14.625 12.8889 14.625H11.1111C10.6194 14.625 10.2222 15.016 10.2222 15.5V17.25V17.9062C10.2222 18.5105 9.725 19 9.11111 19H8.44444H7.55833C7.51667 19 7.475 18.9973 7.43333 18.9945C7.4 18.9973 7.36667 19 7.33333 19H6.88889C6.275 19 5.77778 18.5105 5.77778 17.9062V14.8438C5.77778 14.8191 5.77778 14.7918 5.78056 14.7672V12.8641H4.88889C4.38889 12.8641 4 12.4812 4 11.9863C4 11.7402 4.08333 11.5215 4.27778 11.3301L11.4 5.21875C11.5944 5.02734 11.8167 5 12.0111 5C12.2056 5 12.4278 5.05469 12.5944 5.19141L19.6889 11.3301C19.9111 11.5215 20.0222 11.7402 19.9944 11.9863Z" fill="#55585E"/>
</svg>
