<svg width="24" height="24" viewBox="0 0 24 24" fill="none" xmlns="http://www.w3.org/2000/svg">
<path d="M8.23436 9.56587C8.5471 9.87862 9.05334 9.87812 9.36559 9.56587L11.1999 7.7309V14.0008C11.1999 14.443 11.5577 14.8008 11.9999 14.8008C12.4422 14.8008 12.7999 14.443 12.7999 14.0008V7.7309L14.6344 9.56537C14.9469 9.87787 15.4531 9.87787 15.7656 9.56537C16.0781 9.25288 16.0781 8.74663 15.7656 8.43414L12.5657 5.23417C12.2532 4.92168 11.7469 4.92168 11.4344 5.23417L8.23448 8.43414C7.92186 8.74838 7.92186 9.25338 8.23436 9.56587Z" fill="#55585E"/>
<path fill-rule="evenodd" clip-rule="evenodd" d="M5.20001 18C5.20001 17.5581 5.55818 17.2 6.00001 17.2H18C18.4418 17.2 18.8 17.5581 18.8 18C18.8 18.4418 18.4418 18.8 18 18.8H6.00001C5.55818 18.8 5.20001 18.4418 5.20001 18Z" fill="#55585E"/>
</svg>
