<svg width="18" height="18" viewBox="0 0 18 18" fill="none" xmlns="http://www.w3.org/2000/svg">
<path d="M9 17.5C13.6949 17.5 17.5 13.6949 17.5 9C17.5 4.30508 13.6949 0.5 9 0.5C4.30508 0.5 0.5 4.30508 0.5 9C0.5 13.6949 4.30508 17.5 9 17.5ZM7.67188 11.6562H8.46875V9.53125H7.67188C7.23027 9.53125 6.875 9.17598 6.875 8.73438C6.875 8.29277 7.23027 7.9375 7.67188 7.9375H9.26562C9.70723 7.9375 10.0625 8.29277 10.0625 8.73438V11.6562H10.3281C10.7697 11.6562 11.125 12.0115 11.125 12.4531C11.125 12.8947 10.7697 13.25 10.3281 13.25H7.67188C7.23027 13.25 6.875 12.8947 6.875 12.4531C6.875 12.0115 7.23027 11.6562 7.67188 11.6562ZM9 6.875C8.4123 6.875 7.9375 6.4002 7.9375 5.8125C7.9375 5.2248 8.4123 4.75 9 4.75C9.5877 4.75 10.0625 5.2248 10.0625 5.8125C10.0625 6.4002 9.5877 6.875 9 6.875Z" fill="#55585E"/>
</svg>
