<svg viewBox="0 0 24 24" xmlns="http://www.w3.org/2000/svg">
<path d="M12 20.5C16.6949 20.5 20.5 16.6949 20.5 12C20.5 7.30508 16.6949 3.5 12 3.5C7.30508 3.5 3.5 7.30508 3.5 12C3.5 16.6949 7.30508 20.5 12 20.5ZM10.6719 14.6562H11.4688V12.5312H10.6719C10.2303 12.5312 9.875 12.176 9.875 11.7344C9.875 11.2928 10.2303 10.9375 10.6719 10.9375H12.2656C12.7072 10.9375 13.0625 11.2928 13.0625 11.7344V14.6562H13.3281C13.7697 14.6562 14.125 15.0115 14.125 15.4531C14.125 15.8947 13.7697 16.25 13.3281 16.25H10.6719C10.2303 16.25 9.875 15.8947 9.875 15.4531C9.875 15.0115 10.2303 14.6562 10.6719 14.6562ZM12 9.875C11.4123 9.875 10.9375 9.4002 10.9375 8.8125C10.9375 8.2248 11.4123 7.75 12 7.75C12.5877 7.75 13.0625 8.2248 13.0625 8.8125C13.0625 9.4002 12.5877 9.875 12 9.875Z" fill="#55585E"/>
</svg>
