<svg width="24" height="24" viewBox="0 0 24 24" fill="none" xmlns="http://www.w3.org/2000/svg">
<path fill-rule="evenodd" clip-rule="evenodd" d="M11.6252 4.2002C10.9704 4.2002 10.4502 4.7278 10.4502 5.34679V6.4161H4.8752C4.22043 6.4161 3.7002 6.94371 3.7002 7.5627C3.7002 8.18168 4.22043 8.70929 4.8752 8.70929H16.0017L15.565 9.69327C14.8473 11.3102 13.8545 12.7815 12.6361 14.0492L12.1451 14.5601L10.2246 12.6687C9.76586 12.2169 9.01265 12.2169 8.55388 12.6687C8.10105 13.1146 8.10105 13.8382 8.55388 14.2841L10.333 16.0363L9.57428 16.5049C8.98845 16.8667 8.37828 17.1763 7.75734 17.4534L7.75277 17.4554L7.41584 17.6029C6.81536 17.8663 6.55952 18.5437 6.81609 19.1108C7.07897 19.6919 7.77429 19.9624 8.37205 19.7001L8.70916 19.5525C9.80069 19.0728 10.8205 18.4952 11.7781 17.8279L12.1755 17.5509L12.5747 17.8253C12.9656 18.0938 13.3553 18.3437 13.7625 18.5843L15.5326 19.6266C16.0897 19.9532 16.8251 19.7649 17.1481 19.2309C17.4705 18.698 17.3012 17.9956 16.7445 17.6663L14.9827 16.6289C14.9027 16.5851 14.7982 16.5279 14.691 16.4575L13.9985 16.0028L14.5623 15.3959C16.1115 13.7283 17.328 11.7588 18.1303 9.59355L18.4462 8.71852H19.1252C19.78 8.71852 20.3002 8.19092 20.3002 7.57193C20.3002 6.95294 19.78 6.42534 19.1252 6.42534H12.8002V5.35602C12.8002 4.73252 12.2754 4.2002 11.6252 4.2002Z" fill="#55585E"/>
</svg>
