<svg viewBox="0 0 32 32" xmlns="http://www.w3.org/2000/svg">
<path d="M30 16C30 17.4492 28.8242 18.625 27.375 18.625C25.9258 18.625 24.75 17.4492 24.75 16C24.75 14.5508 25.9258 13.375 27.375 13.375C28.8242 13.375 30 14.5508 30 16Z" fill="#F0F0F0"/>
<path d="M7.25 16C7.25 17.4492 6.07422 18.625 4.625 18.625C3.17578 18.625 2 17.4492 2 16C2 14.5508 3.17578 13.375 4.625 13.375C6.07422 13.375 7.25 14.5508 7.25 16Z" fill="#666666"/>
<path d="M9.81242 22.1865C10.8372 23.2113 10.8372 24.8741 9.81242 25.8988C8.78767 26.9236 7.12486 26.9236 6.10011 25.8988C5.07535 24.8741 5.07535 23.2113 6.10011 22.1865C7.12486 21.1618 8.78767 21.1618 9.81242 22.1865Z" fill="#AAAAAA"/>
<path d="M25.8998 25.8998C24.8751 26.9246 23.2123 26.9246 22.1875 25.8998C21.1628 24.8751 21.1628 23.2123 22.1875 22.1875C23.2123 21.1628 24.8751 21.1628 25.8998 22.1875C26.9246 23.2123 26.9246 24.8751 25.8998 25.8998Z" fill="#D9D9D9"/>
<path d="M9.81291 9.81291C8.78815 10.8377 7.12535 10.8377 6.1006 9.81291C5.07584 8.78815 5.07584 7.12535 6.1006 6.1006C7.12535 5.07584 8.78815 5.07584 9.81291 6.1006C10.8377 7.12535 10.8377 8.78815 9.81291 9.81291Z" fill="#666666"/>
<path d="M16 30C14.5508 30 13.375 28.8242 13.375 27.375C13.375 25.9258 14.5508 24.75 16 24.75C17.4492 24.75 18.625 25.9258 18.625 27.375C18.625 28.8242 17.4492 30 16 30Z" fill="#AAAAAA"/>
<path d="M16 7.25C14.5508 7.25 13.375 6.07422 13.375 4.625C13.375 3.17578 14.5508 2 16 2C17.4492 2 18.625 3.17578 18.625 4.625C18.625 6.07422 17.4492 7.25 16 7.25Z" fill="#666666"/>
</svg>
