<svg viewBox="0 0 24 24" xmlns="http://www.w3.org/2000/svg">
<path d="M7 2C5.61875 2 4.5 3.11875 4.5 4.5V6H12C13.1031 6 14 6.89687 14 8V14C14 15.1031 13.1031 16 12 16H2C0.896875 16 0 15.1031 0 14V8C0 6.89687 0.896875 6 2 6H2.5V4.5C2.5 2.01562 4.51562 0 7 0C8.79688 0 10.3438 1.05313 11.0656 2.57188C11.3031 3.07188 11.0906 3.66875 10.5906 3.90313C10.0906 4.1375 9.49375 3.92812 9.25937 3.42812C8.85625 2.58125 7.99687 2 7 2ZM8 12C8.55313 12 9 11.5531 9 11C9 10.4469 8.55313 10 8 10H6C5.44688 10 5 10.4469 5 11C5 11.5531 5.44688 12 6 12H8Z" fill="#55585E"/>
</svg>
