<svg width="28" height="28" viewBox="0 0 28 28" fill="none" xmlns="http://www.w3.org/2000/svg">
<path d="M7 8.83333C7 8.61232 7.07375 8.40036 7.20503 8.24408C7.3363 8.0878 7.51435 8 7.7 8H20.3C20.4857 8 20.6637 8.0878 20.795 8.24408C20.9263 8.40036 21 8.61232 21 8.83333C21 9.05435 20.9263 9.26631 20.795 9.42259C20.6637 9.57887 20.4857 9.66667 20.3 9.66667H7.7C7.51435 9.66667 7.3363 9.57887 7.20503 9.42259C7.07375 9.26631 7 9.05435 7 8.83333ZM7 14C7 13.779 7.07375 13.567 7.20503 13.4107C7.3363 13.2545 7.51435 13.1667 7.7 13.1667H20.3C20.4857 13.1667 20.6637 13.2545 20.795 13.4107C20.9263 13.567 21 13.779 21 14C21 14.221 20.9263 14.433 20.795 14.5893C20.6637 14.7455 20.4857 14.8333 20.3 14.8333H7.7C7.51435 14.8333 7.3363 14.7455 7.20503 14.5893C7.07375 14.433 7 14.221 7 14ZM7 19.1667C7 18.9457 7.07375 18.7337 7.20503 18.5774C7.3363 18.4211 7.51435 18.3333 7.7 18.3333H16.1C16.2857 18.3333 16.4637 18.4211 16.595 18.5774C16.7263 18.7337 16.8 18.9457 16.8 19.1667C16.8 19.3877 16.7263 19.5996 16.595 19.7559C16.4637 19.9122 16.2857 20 16.1 20H7.7C7.51435 20 7.3363 19.9122 7.20503 19.7559C7.07375 19.5996 7 19.3877 7 19.1667Z" fill="#2B9749"/>
</svg>
