<svg width="24" height="24" viewBox="0 0 24 24" fill="none" xmlns="http://www.w3.org/2000/svg">
<path fill-rule="evenodd" clip-rule="evenodd" d="M12.0001 6.14961C11.2545 6.14961 10.6501 6.75402 10.6501 7.49961C10.6501 8.24519 11.2545 8.84961 12.0001 8.84961C12.7457 8.84961 13.3501 8.24519 13.3501 7.49961C13.3501 6.75402 12.7457 6.14961 12.0001 6.14961ZM9.3501 7.49961C9.3501 6.03605 10.5365 4.84961 12.0001 4.84961C13.4637 4.84961 14.6501 6.03605 14.6501 7.49961C14.6501 8.96316 13.4637 10.1496 12.0001 10.1496C10.5365 10.1496 9.3501 8.96316 9.3501 7.49961Z" fill="#55585E"/>
<path fill-rule="evenodd" clip-rule="evenodd" d="M7.0001 15.1496C6.25451 15.1496 5.6501 15.754 5.6501 16.4996C5.6501 17.2452 6.25451 17.8496 7.0001 17.8496C7.74568 17.8496 8.3501 17.2452 8.3501 16.4996C8.3501 15.754 7.74568 15.1496 7.0001 15.1496ZM4.3501 16.4996C4.3501 15.0361 5.53654 13.8496 7.0001 13.8496C8.46365 13.8496 9.6501 15.0361 9.6501 16.4996C9.6501 17.9632 8.46365 19.1496 7.0001 19.1496C5.53654 19.1496 4.3501 17.9632 4.3501 16.4996Z" fill="#55585E"/>
<path d="M13.5001 13.4C13.5001 14.2284 12.8285 14.9 12.0001 14.9C11.1717 14.9 10.5001 14.2284 10.5001 13.4C10.5001 12.5716 11.1717 11.9 12.0001 11.9C12.8285 11.9 13.5001 12.5716 13.5001 13.4Z" fill="#55585E"/>
<path fill-rule="evenodd" clip-rule="evenodd" d="M17.0001 15.1496C16.2545 15.1496 15.6501 15.754 15.6501 16.4996C15.6501 17.2452 16.2545 17.8496 17.0001 17.8496C17.7457 17.8496 18.3501 17.2452 18.3501 16.4996C18.3501 15.754 17.7457 15.1496 17.0001 15.1496ZM14.3501 16.4996C14.3501 15.0361 15.5365 13.8496 17.0001 13.8496C18.4637 13.8496 19.6501 15.0361 19.6501 16.4996C19.6501 17.9632 18.4637 19.1496 17.0001 19.1496C15.5365 19.1496 14.3501 17.9632 14.3501 16.4996Z" fill="#55585E"/>
</svg>
