<svg width="24" height="24" viewBox="0 0 24 24" fill="none" xmlns="http://www.w3.org/2000/svg">
<path d="M17.5 12C17.5 12.4678 17.1211 12.8464 16.6538 12.8464H12.8462V16.6541C12.8462 17.1219 12.4672 17.5 12 17.5C11.5328 17.5 11.1538 17.1219 11.1538 16.6541V12.8464H7.34615C6.87892 12.8464 6.5 12.4678 6.5 12C6.5 11.5322 6.87892 11.1541 7.34615 11.1541H11.1538V7.34642C11.1538 6.87865 11.5328 6.5 12 6.5C12.4672 6.5 12.8462 6.87865 12.8462 7.34642V11.1541H16.6538C17.1219 11.1538 17.5 11.532 17.5 12Z" fill="white"/>
</svg>
