<svg width="16" height="16" viewBox="0 0 16 16" fill="none" xmlns="http://www.w3.org/2000/svg">
<path d="M5.71429 1.14286C5.71429 0.510714 5.20357 0 4.57143 0C3.93929 0 3.42857 0.510714 3.42857 1.14286V3.42857H1.14286C0.510714 3.42857 0 3.93929 0 4.57143C0 5.20357 0.510714 5.71429 1.14286 5.71429H4.57143C5.20357 5.71429 5.71429 5.20357 5.71429 4.57143V1.14286ZM1.14286 10.2857C0.510714 10.2857 0 10.7964 0 11.4286C0 12.0607 0.510714 12.5714 1.14286 12.5714H3.42857V14.8571C3.42857 15.4893 3.93929 16 4.57143 16C5.20357 16 5.71429 15.4893 5.71429 14.8571V11.4286C5.71429 10.7964 5.20357 10.2857 4.57143 10.2857H1.14286ZM12.5714 1.14286C12.5714 0.510714 12.0607 0 11.4286 0C10.7964 0 10.2857 0.510714 10.2857 1.14286V4.57143C10.2857 5.20357 10.7964 5.71429 11.4286 5.71429H14.8571C15.4893 5.71429 16 5.20357 16 4.57143C16 3.93929 15.4893 3.42857 14.8571 3.42857H12.5714V1.14286ZM11.4286 10.2857C10.7964 10.2857 10.2857 10.7964 10.2857 11.4286V14.8571C10.2857 15.4893 10.7964 16 11.4286 16C12.0607 16 12.5714 15.4893 12.5714 14.8571V12.5714H14.8571C15.4893 12.5714 16 12.0607 16 11.4286C16 10.7964 15.4893 10.2857 14.8571 10.2857H11.4286Z" fill="#55585E"/>
</svg>
