<svg width="24" height="24" viewBox="0 0 24 24" fill="none" xmlns="http://www.w3.org/2000/svg">
<path d="M14.599 15.6308L12.4099 17.8354C12.2876 17.9439 12.1464 17.9973 12.0052 17.9973C11.8639 17.9973 11.7231 17.9435 11.6154 17.8358L9.42632 15.6313C9.2533 15.4741 9.2061 15.2364 9.29143 15.0315C9.37675 14.8265 9.57789 14.6904 9.80058 14.6904H14.1943C14.4171 14.6904 14.6183 14.8244 14.7037 15.0306C14.7892 15.2367 14.7575 15.4741 14.599 15.6308Z" fill="#55585E"/>
<path d="M9.41192 8.3681L11.6025 6.16201C11.725 6.05343 11.8664 6 12.0077 6C12.149 6 12.29 6.05386 12.3977 6.16158L14.5883 8.36767C14.7461 8.52547 14.7934 8.76252 14.708 8.96883C14.6225 9.17513 14.4361 9.30913 14.1983 9.30913H9.80178C9.57876 9.30913 9.37745 9.17503 9.29197 8.96874C9.20648 8.76245 9.25411 8.52494 9.41192 8.3681Z" fill="#55585E"/>
</svg>
