<svg width="16" height="18" viewBox="0 0 16 18" fill="none" xmlns="http://www.w3.org/2000/svg">
<path d="M15.9556 5.85818C16.0617 6.16409 15.9722 6.50518 15.7435 6.72319L14.3078 8.10862C14.3443 8.40047 14.3642 8.69936 14.3642 9.00176C14.3642 9.30416 14.3443 9.60305 14.3078 9.8949L15.7435 11.2803C15.9722 11.4983 16.0617 11.8394 15.9556 12.1453C15.8098 12.5638 15.634 12.9646 15.4318 13.3514L15.276 13.6363C15.0571 14.0231 14.8118 14.3887 14.5432 14.7333C14.3476 14.9865 14.0227 15.0709 13.7309 14.9725L11.8842 14.3501C11.4399 14.7122 10.9492 15.0147 10.4253 15.2432L10.0109 17.251C9.94457 17.571 9.71248 17.8242 9.40745 17.8769C8.9499 17.9578 8.4791 18 7.99834 18C7.51759 18 7.04678 17.9578 6.58924 17.8769C6.28421 17.8242 6.05212 17.571 5.98581 17.251L5.57136 15.2432C5.04751 15.0147 4.55681 14.7122 4.11253 14.3501L2.26908 14.976C1.97732 15.0744 1.65239 14.9865 1.45678 14.7369C1.18822 14.3923 0.942866 14.0266 0.72404 13.6398L0.56821 13.355C0.365962 12.9682 0.190238 12.5673 0.0443539 12.1489C-0.0617435 11.8429 0.0277762 11.5019 0.256549 11.2838L1.69218 9.89842C1.65571 9.60305 1.63581 9.30416 1.63581 9.00176C1.63581 8.69936 1.65571 8.40047 1.69218 8.10862L0.256549 6.72319C0.0277762 6.50518 -0.0617435 6.16409 0.0443539 5.85818C0.190238 5.43973 0.365962 5.03888 0.56821 4.65208L0.72404 4.36726C0.942866 3.98046 1.18822 3.61477 1.45678 3.27017C1.65239 3.017 1.97732 2.9326 2.26908 3.03106L4.11584 3.65345C4.56012 3.29127 5.05082 2.98887 5.57468 2.7603L5.98912 0.752491C6.05543 0.432506 6.28752 0.179332 6.59255 0.126587C7.0501 0.0421957 7.5209 0 8.00166 0C8.48241 0 8.95322 0.0421957 9.41076 0.123071C9.71579 0.175816 9.94788 0.42899 10.0142 0.748974L10.4286 2.75679C10.9525 2.98535 11.4432 3.28775 11.8875 3.64993L13.7342 3.02754C14.026 2.92909 14.3509 3.017 14.5465 3.26665C14.8151 3.61125 15.0605 3.97695 15.2793 4.36374L15.4351 4.64856C15.6374 5.03536 15.8131 5.43622 15.959 5.85466L15.9556 5.85818ZM8.00166 11.8148C9.46713 11.8148 10.6541 10.556 10.6541 9.00176C10.6541 7.44755 9.46713 6.18871 8.00166 6.18871C6.53619 6.18871 5.34922 7.44755 5.34922 9.00176C5.34922 10.556 6.53619 11.8148 8.00166 11.8148Z" fill="#55585E"/>
</svg>
