<svg width="24" height="24" viewBox="0 0 24 24" fill="none" xmlns="http://www.w3.org/2000/svg">
<path d="M19.9556 8.85818C20.0617 9.16409 19.9722 9.50518 19.7435 9.72319L18.3078 11.1086C18.3443 11.4005 18.3642 11.6994 18.3642 12.0018C18.3642 12.3042 18.3443 12.603 18.3078 12.8949L19.7435 14.2803C19.9722 14.4983 20.0617 14.8394 19.9556 15.1453C19.8098 15.5638 19.634 15.9646 19.4318 16.3514L19.276 16.6363C19.0571 17.0231 18.8118 17.3887 18.5432 17.7333C18.3476 17.9865 18.0227 18.0709 17.7309 17.9725L15.8842 17.3501C15.4399 17.7122 14.9492 18.0147 14.4253 18.2432L14.0109 20.251C13.9446 20.571 13.7125 20.8242 13.4074 20.8769C12.9499 20.9578 12.4791 21 11.9983 21C11.5176 21 11.0468 20.9578 10.5892 20.8769C10.2842 20.8242 10.0521 20.571 9.98581 20.251L9.57136 18.2432C9.04751 18.0147 8.55681 17.7122 8.11253 17.3501L6.26908 17.976C5.97732 18.0744 5.65239 17.9865 5.45678 17.7369C5.18822 17.3923 4.94287 17.0266 4.72404 16.6398L4.56821 16.355C4.36596 15.9682 4.19024 15.5673 4.04435 15.1489C3.93826 14.8429 4.02778 14.5019 4.25655 14.2838L5.69218 12.8984C5.65571 12.603 5.63581 12.3042 5.63581 12.0018C5.63581 11.6994 5.65571 11.4005 5.69218 11.1086L4.25655 9.72319C4.02778 9.50518 3.93826 9.16409 4.04435 8.85818C4.19024 8.43973 4.36596 8.03888 4.56821 7.65208L4.72404 7.36726C4.94287 6.98046 5.18822 6.61477 5.45678 6.27017C5.65239 6.017 5.97732 5.9326 6.26908 6.03106L8.11584 6.65345C8.56012 6.29127 9.05082 5.98887 9.57468 5.7603L9.98912 3.75249C10.0554 3.43251 10.2875 3.17933 10.5926 3.12659C11.0501 3.0422 11.5209 3 12.0017 3C12.4824 3 12.9532 3.0422 13.4108 3.12307C13.7158 3.17582 13.9479 3.42899 14.0142 3.74897L14.4286 5.75679C14.9525 5.98535 15.4432 6.28775 15.8875 6.64993L17.7342 6.02754C18.026 5.92909 18.3509 6.017 18.5465 6.26665C18.8151 6.61125 19.0605 6.97695 19.2793 7.36374L19.4351 7.64856C19.6374 8.03536 19.8131 8.43622 19.959 8.85466L19.9556 8.85818ZM12.0017 14.8148C13.4671 14.8148 14.6541 13.556 14.6541 12.0018C14.6541 10.4475 13.4671 9.18871 12.0017 9.18871C10.5362 9.18871 9.34922 10.4475 9.34922 12.0018C9.34922 13.556 10.5362 14.8148 12.0017 14.8148Z" fill="#55585E"/>
</svg>
