<svg width="24" height="25" viewBox="0 0 24 25" fill="none" xmlns="http://www.w3.org/2000/svg">
<path d="M11.0767 3.71993C11.4183 2.89864 12.5817 2.89864 12.9233 3.71993L14.675 7.9314C14.819 8.27764 15.1446 8.51421 15.5184 8.54418L20.065 8.90868C20.9517 8.97976 21.3112 10.0863 20.6357 10.6649L17.1716 13.6323C16.8868 13.8762 16.7624 14.259 16.8495 14.6238L17.9078 19.0605C18.1142 19.9257 17.1729 20.6096 16.4138 20.1459L12.5213 17.7684C12.2012 17.5729 11.7988 17.5729 11.4787 17.7684L7.58619 20.1459C6.82709 20.6096 5.88583 19.9257 6.09222 19.0605L7.15055 14.6238C7.23756 14.259 7.11318 13.8762 6.8284 13.6323L3.36434 10.6649C2.6888 10.0863 3.04832 8.97976 3.93498 8.90868L8.48162 8.54418C8.85541 8.51421 9.18102 8.27764 9.32503 7.93141L11.0767 3.71993Z" fill="white" stroke="#AAAAAA" stroke-width="1.5"/>
</svg>
