<svg width="24" height="24" viewBox="0 0 24 24" fill="none" xmlns="http://www.w3.org/2000/svg">
<g clip-path="url(#clip0_4474_34107)">
<path d="M4.4775 10.375H19.5225C20.0617 10.375 20.5 9.95605 20.5 9.44062C20.5 9.25527 20.4416 9.075 20.3353 8.92266L18.3272 6.04336C18.0908 5.70312 17.695 5.5 17.2673 5.5H6.73266C6.30766 5.5 5.90922 5.70312 5.67281 6.04336L3.66469 8.92012C3.55844 9.075 3.5 9.25527 3.5 9.43809C3.5 9.95605 3.93828 10.375 4.4775 10.375ZM5.2 11.1875V15.25V17.2812C5.2 17.9541 5.77109 18.5 6.475 18.5H12.425C13.1289 18.5 13.7 17.9541 13.7 17.2812V15.25V11.1875H12V15.25H6.9V11.1875H5.2ZM17.1 11.1875V17.6875C17.1 18.1369 17.4798 18.5 17.95 18.5C18.4202 18.5 18.8 18.1369 18.8 17.6875V11.1875H17.1Z" fill="#55585E"/>
</g>
<defs>
<clipPath id="clip0_4474_34107">
<rect width="17" height="13" fill="white" transform="translate(3.5 5.5)"/>
</clipPath>
</defs>
</svg>
