<svg width="18" height="14" viewBox="0 0 18 14" fill="none" xmlns="http://www.w3.org/2000/svg">
<path d="M1.4775 5.375H16.5225C17.0617 5.375 17.5 4.95605 17.5 4.44062C17.5 4.25527 17.4416 4.075 17.3353 3.92266L15.3272 1.04336C15.0908 0.703125 14.695 0.5 14.2673 0.5H3.73266C3.30766 0.5 2.90922 0.703125 2.67281 1.04336L0.664687 3.92012C0.558437 4.075 0.5 4.25527 0.5 4.43809C0.5 4.95605 0.938281 5.375 1.4775 5.375ZM2.2 6.1875V10.25V12.2812C2.2 12.9541 2.77109 13.5 3.475 13.5H9.425C10.1289 13.5 10.7 12.9541 10.7 12.2812V10.25V6.1875H9V10.25H3.9V6.1875H2.2ZM14.1 6.1875V12.6875C14.1 13.1369 14.4798 13.5 14.95 13.5C15.4202 13.5 15.8 13.1369 15.8 12.6875V6.1875H14.1Z" fill="#55585E"/>
</svg>
