<svg width="24" height="24" viewBox="0 0 24 24" fill="none" xmlns="http://www.w3.org/2000/svg">
<path d="M3.06667 4C2.47667 4 2 4.50117 2 5.1215V7.36449C2 7.98481 2.47667 8.48598 3.06667 8.48598C3.65667 8.48598 4.13333 7.98481 4.13333 7.36449V6.24299H6.93333V17.757H5.86667C5.27667 17.757 4.8 18.2582 4.8 18.8785C4.8 19.4988 5.27667 20 5.86667 20H10.1333C10.7233 20 11.2 19.4988 11.2 18.8785C11.2 18.2582 10.7233 17.757 10.1333 17.757H9.06667V6.24299H11.8667V7.36449C11.8667 7.98481 12.3433 8.48598 12.9333 8.48598C13.5233 8.48598 14 7.98481 14 7.36449V5.1215C14 4.50117 13.5233 4 12.9333 4H8H3.06667Z" fill="#55585E"/>
<path d="M13.0667 10.5C12.4767 10.5 12 11.0012 12 11.6215V13C12 13.6203 12.4767 14.1215 13.0667 14.1215C13.6567 14.1215 14.1333 13.6203 14.1333 13V12.743H15.9336L15.9335 17.757H14.8669C14.2769 17.757 13.8002 18.2582 13.8002 18.8785C13.8002 19.4988 14.2769 20 14.8669 20H19.1335C19.7235 20 20.2002 19.4988 20.2002 18.8785C20.2002 18.2582 19.7235 17.757 19.1335 17.757H18.0669L18.0669 12.743H19.8669V13C19.8669 13.6203 20.3436 14.1215 20.9336 14.1215C21.5236 14.1215 22.0002 13.6203 22.0002 13V11.6215C22.0002 11.0012 21.5236 10.5 20.9336 10.5H17.0002H13.0667Z" fill="#55585E"/>
</svg>
