<svg width="18" height="16" viewBox="0 0 18 16" fill="none" xmlns="http://www.w3.org/2000/svg">
<path fill-rule="evenodd" clip-rule="evenodd" d="M8.6252 0.200195C7.97043 0.200195 7.4502 0.727798 7.4502 1.34679V2.4161H1.8752C1.22043 2.4161 0.700195 2.94371 0.700195 3.5627C0.700195 4.18168 1.22043 4.70929 1.8752 4.70929H13.0017L12.565 5.69327C11.8473 7.31016 10.8545 8.78149 9.63613 10.0492L9.14512 10.5601L7.22464 8.66868C6.76586 8.21686 6.01265 8.21686 5.55388 8.66868C5.10105 9.11464 5.10105 9.83816 5.55388 10.2841L7.33298 12.0363L6.57428 12.5049C5.98845 12.8667 5.37828 13.1763 4.75734 13.4534L4.75277 13.4554L4.41584 13.6029C3.81536 13.8663 3.55952 14.5437 3.81609 15.1108C4.07897 15.6919 4.77429 15.9624 5.37205 15.7001L5.70916 15.5525C6.80069 15.0728 7.82048 14.4952 8.77812 13.8279L9.17552 13.5509L9.57473 13.8253C9.96561 14.0938 10.3553 14.3437 10.7625 14.5843L12.5326 15.6266C13.0897 15.9532 13.8251 15.7649 14.1481 15.2309C14.4705 14.698 14.3012 13.9956 13.7445 13.6663L11.9827 12.6289C11.9027 12.5851 11.7982 12.5279 11.691 12.4575L10.9985 12.0028L11.5623 11.3959C13.1115 9.72831 14.328 7.7588 15.1303 5.59355L15.4462 4.71852H16.1252C16.78 4.71852 17.3002 4.19092 17.3002 3.57193C17.3002 2.95294 16.78 2.42534 16.1252 2.42534H9.8002V1.35602C9.8002 0.732522 9.2754 0.200195 8.6252 0.200195Z" fill="#55585E"/>
</svg>
