<svg width="16" height="16" viewBox="0 0 16 16" fill="none" xmlns="http://www.w3.org/2000/svg">
<path d="M11 10C13.7625 10 16 7.7625 16 5C16 4.52187 15.9312 4.05938 15.8062 3.61875C15.7094 3.28125 15.2937 3.20625 15.0469 3.45312L12.6469 5.85313C12.5531 5.94688 12.425 6 12.2937 6H10.5C10.225 6 10 5.775 10 5.5V3.70625C10 3.575 10.0531 3.44688 10.1469 3.35313L12.5469 0.953125C12.7937 0.70625 12.7156 0.290625 12.3813 0.19375C11.9406 0.06875 11.4781 0 11 0C8.2375 0 6 2.2375 6 5C6 5.59688 6.10625 6.17188 6.29688 6.70312L0.621875 12.3781C0.225 12.775 0 13.3156 0 13.8781C0 15.05 0.95 16 2.12188 16C2.68438 16 3.225 15.775 3.62188 15.3781L9.29688 9.70312C9.82812 9.89688 10.4031 10 11 10ZM2.5 14.25C2.08437 14.25 1.75 13.9156 1.75 13.5C1.75 13.0844 2.08437 12.75 2.5 12.75C2.91563 12.75 3.25 13.0844 3.25 13.5C3.25 13.9156 2.91563 14.25 2.5 14.25Z" fill="#55585E"/>
</svg>
