<svg width="24" height="24" viewBox="0 0 24 24" fill="none" xmlns="http://www.w3.org/2000/svg">
<path d="M5.2 5.6001C4.5375 5.6001 4 6.1376 4 6.8001V14.8001C4 15.4626 4.5375 16.0001 5.2 16.0001H5.6C5.6 17.3251 6.675 18.4001 8 18.4001C9.325 18.4001 10.4 17.3251 10.4 16.0001H13.6C13.6 17.3251 14.675 18.4001 16 18.4001C17.325 18.4001 18.4 17.3251 18.4 16.0001H19.2C19.6425 16.0001 20 15.6426 20 15.2001C20 14.7576 19.6425 14.4001 19.2 14.4001V12.8001V12.0001V11.5326C19.2 11.1076 19.0325 10.7001 18.7325 10.4001L16.8 8.4676C16.5 8.1676 16.0925 8.0001 15.6675 8.0001H14.4V6.8001C14.4 6.1376 13.8625 5.6001 13.2 5.6001H5.2ZM14.4 9.6001H15.6675L17.6 11.5326V12.0001H14.4V9.6001ZM9.2 16.0001C9.2 16.6626 8.6625 17.2001 8 17.2001C7.3375 17.2001 6.8 16.6626 6.8 16.0001C6.8 15.3376 7.3375 14.8001 8 14.8001C8.6625 14.8001 9.2 15.3376 9.2 16.0001ZM16 17.2001C15.3375 17.2001 14.8 16.6626 14.8 16.0001C14.8 15.3376 15.3375 14.8001 16 14.8001C16.6625 14.8001 17.2 15.3376 17.2 16.0001C17.2 16.6626 16.6625 17.2001 16 17.2001Z" fill="#55585E"/>
</svg>
