<svg width="24" height="24" viewBox="0 0 24 24" fill="none" xmlns="http://www.w3.org/2000/svg">
<path d="M15.9286 14.6427V16.2141C15.9286 16.648 15.5767 16.9998 15.1429 16.9998H8.85714C8.42328 16.9998 8.07143 16.648 8.07143 16.2141V14.6427C8.07143 14.2088 7.71958 13.857 7.28571 13.857C6.85185 13.857 6.5 14.2088 6.5 14.6427V16.2141C6.5 17.5159 7.55531 18.5713 8.85714 18.5713H15.1429C16.4447 18.5713 17.5 17.5159 17.5 16.2141V14.6427C17.5 14.2088 17.1481 13.857 16.7143 13.857C16.2804 13.857 15.9286 14.2081 15.9286 14.6427ZM11.4451 6.23002L8.30223 9.37288C7.99507 9.68004 7.99556 10.1773 8.30223 10.4839C8.60915 10.7908 9.10636 10.7908 9.41328 10.4839L11.2143 8.68354V13.857C11.2143 14.2913 11.5656 14.6427 12 14.6427C12.4344 14.6427 12.7857 14.2913 12.7857 13.857V8.68354L14.5875 10.4853C14.8944 10.7922 15.3916 10.7922 15.6985 10.4853C16.0054 10.1784 16.0054 9.68115 15.6985 9.37423L12.5556 6.23137C12.248 5.9231 11.752 5.9231 11.4451 6.23002Z" fill="#55585E"/>
</svg>
