<svg width="24" height="24" viewBox="0 0 24 24" fill="none" xmlns="http://www.w3.org/2000/svg">
<path d="M12.9 8.5C12.9 10.4332 11.2884 12 9.3 12C7.31156 12 5.7 10.4332 5.7 8.5C5.7 6.5668 7.31156 5 9.3 5C11.2884 5 12.9 6.5668 12.9 8.5ZM3 18.1879C3 15.4945 5.24438 13.3125 8.01469 13.3125H10.5853C13.3556 13.3125 15.6 15.4945 15.6 18.1879C15.6 18.6363 15.2259 19 14.7647 19H3.83531C3.37406 19 3 18.6363 3 18.1879ZM20.1366 19H16.2581C16.41 18.743 16.5 18.4449 16.5 18.125V17.9062C16.5 16.2465 15.7378 14.7563 14.5369 13.7555C14.6044 13.7527 14.6691 13.75 14.7366 13.75H16.4634C18.9694 13.75 21 15.7242 21 18.1605C21 18.6254 20.6119 19 20.1366 19ZM15.15 12C14.2781 12 13.4906 11.6555 12.9197 11.1004C13.4738 10.373 13.8 9.47344 13.8 8.5C13.8 7.76719 13.6144 7.07539 13.2853 6.46836C13.8084 6.09648 14.4525 5.875 15.15 5.875C16.8909 5.875 18.3 7.24492 18.3 8.9375C18.3 10.6301 16.8909 12 15.15 12Z" fill="#55585E"/>
</svg>
