<svg viewBox="0 0 24 24" xmlns="http://www.w3.org/2000/svg">
<path d="M18.68 17.1324L15.407 13.8594C16.1513 12.7544 16.5185 11.3738 16.3219 9.90272C15.9867 7.4005 13.9359 5.36421 11.4312 5.0471C7.70727 4.57589 4.57587 7.70729 5.04711 11.4312C5.3643 13.937 7.40086 15.9894 9.90336 16.323C11.3745 16.5196 12.7553 16.1525 13.86 15.4081L17.133 18.6812C17.5602 19.1083 18.2528 19.1083 18.6799 18.6812C19.1066 18.2535 19.1066 17.559 18.68 17.1324ZM7.16286 10.6875C7.16286 8.75757 8.73294 7.18749 10.6629 7.18749C12.5928 7.18749 14.1629 8.75757 14.1629 10.6875C14.1629 12.6174 12.5928 14.1875 10.6629 14.1875C8.73294 14.1875 7.16286 12.618 7.16286 10.6875Z"/>
</svg>
