<svg width="81" height="20" viewBox="0 0 81 20" fill="none" xmlns="http://www.w3.org/2000/svg">
<path d="M56.4464 7.57345L56.8989 8.07394C57.1921 7.59817 57.4887 7.15466 57.7416 6.6885C57.8694 6.45302 57.9822 6.3926 58.2289 6.50657C58.7661 6.75372 59.3156 6.97616 59.8932 7.22332C59.8187 7.30364 59.7858 7.37161 59.7428 7.37985C59.2992 7.46498 59.1277 7.84052 58.8905 8.15358C58.574 8.57443 58.2446 8.98429 57.8564 9.48135L59.1365 8.91495C59.2732 9.18476 59.427 9.44221 59.5289 9.71958C59.7749 10.3903 60.0011 11.0686 60.2171 11.7497C60.2465 11.8424 60.2034 12.0366 60.1372 12.0696C59.712 12.2817 59.2712 12.4623 58.7982 12.6696C58.7395 12.4307 58.6909 12.2309 58.6308 11.9886C57.9794 12.0572 57.3322 12.1259 56.6863 12.1891C56.4655 12.2117 56.2407 12.2131 56.024 12.2577C55.6303 12.3319 55.1745 12.2117 54.8792 12.7074C54.6653 12.1582 54.4842 11.6975 54.3037 11.2355L54.2354 11.2499V11.9653C53.8205 11.9653 53.4364 11.9598 53.053 11.9653C52.7741 11.9701 52.3175 12.3772 52.3052 12.6003C52.2929 12.8234 52.3736 12.9298 52.6073 12.9044C52.7241 12.8983 52.8412 12.8983 52.958 12.9044C55.1334 12.9044 57.3089 12.9099 59.4844 12.8976C59.8016 12.8976 59.8617 13.0095 59.8262 13.2916C59.6949 14.2748 58.9506 14.8837 57.7682 14.9126C56.7977 14.9366 55.8265 14.9208 54.856 14.9222H54.3434C56.1573 16.3083 58.1353 17.0642 60.3374 17.4741C59.9731 17.9732 59.5603 18.2725 59.0525 18.4352C57.7539 18.8567 56.5359 18.5835 55.3569 18.002C54.3618 17.5111 53.5047 16.8218 52.6791 16.0886C52.5855 16.0055 52.4877 15.9266 52.3374 15.7975C52.3257 15.9863 52.3128 16.1078 52.3128 16.2294C52.3128 17.0759 52.3039 17.9217 52.3175 18.7696C52.3216 19.049 52.2191 19.141 51.9491 19.1341C51.388 19.1204 50.8262 19.1176 50.2651 19.1341C49.9821 19.1423 49.9076 19.0318 49.9117 18.7613C49.9261 17.9038 49.9172 17.045 49.9172 16.1882V15.6973C49.5249 16.046 49.1893 16.3495 48.8482 16.6454C47.8005 17.5537 46.6714 18.3199 45.2662 18.532C44.2068 18.692 43.1891 18.567 42.2896 17.9141C42.1823 17.8359 42.0914 17.7343 41.9226 17.5784C44.0899 17.2207 45.9496 16.3914 47.6317 14.9311H42.4359C42.4359 14.2755 42.4291 13.6679 42.4468 13.0617C42.4468 13.0054 42.6074 12.9127 42.697 12.9079C43.0353 12.8893 43.375 12.8996 43.714 12.8996H49.5037H49.881V11.9804C49.3649 11.9804 48.7505 11.8073 48.35 12.0277C47.9276 12.2591 47.4799 12.3504 47.0616 12.544C46.977 12.5726 46.8894 12.5912 46.8006 12.5996C46.5914 11.9762 46.5955 11.9858 45.9339 12.0669C45.2504 12.1506 44.5615 12.1987 43.8787 12.2907C43.5561 12.3346 43.2417 12.4458 42.8535 12.5447C42.6799 11.9879 42.4817 11.3529 42.2739 10.6855C42.4284 10.6691 42.5111 10.6409 42.5856 10.6553C43.1706 10.7714 43.5247 10.4761 43.794 10.0004C43.9026 9.80883 44.0414 9.63445 44.1999 9.40308C43.6333 8.79137 43.0872 8.18173 42.5152 7.59748C42.3334 7.41074 42.2862 7.28922 42.4619 7.07228C42.7107 6.76333 42.9239 6.42624 43.1706 6.07542L43.6135 6.4029C43.9067 5.77678 44.2122 5.17193 44.4713 4.54924C44.5834 4.27943 44.6907 4.25128 44.9367 4.36662C45.4493 4.60691 45.9756 4.81836 46.5231 5.05316C46.4622 5.13074 46.4383 5.19047 46.4062 5.19665C45.9804 5.26187 45.8731 5.63603 45.6851 5.93331C45.3598 6.44684 45.031 6.959 44.6934 7.48832L45.124 7.99636L46.0296 6.4132L47.8893 7.20341C47.851 7.27824 47.8394 7.3311 47.821 7.33454C47.3733 7.408 47.2059 7.78079 46.9803 8.10277C46.4253 8.89848 45.8587 9.68182 45.2832 10.4961H46.2709C46.1642 10.196 46.0727 9.93515 45.9599 9.6166C46.4041 9.47929 46.8313 9.34198 47.2653 9.23351C47.3166 9.22046 47.4362 9.33786 47.4704 9.4175C47.633 9.80334 47.7779 10.1974 47.959 10.6649C47.959 9.62209 47.959 8.65544 47.959 7.6881C47.959 7.0661 47.9672 6.44272 47.959 5.82071C47.9543 5.57425 48.0458 5.48912 48.2864 5.49804C48.6719 5.51246 49.0587 5.50902 49.4442 5.49804C49.5331 5.49804 49.6746 5.44586 49.6985 5.3827C49.8468 4.98108 49.9719 4.56984 50.114 4.12153C49.7238 4.12153 49.3984 4.11535 49.0738 4.12633C49.0344 4.12867 48.9959 4.13908 48.9606 4.1569C48.9253 4.17473 48.8941 4.1996 48.8687 4.23C48.5188 4.72568 47.9918 4.8726 47.441 4.95499C47.1676 4.99618 46.8026 5.08886 46.6338 4.95499C46.4807 4.83484 46.5374 4.44351 46.4971 4.13114C46.3877 4.12496 46.264 4.11191 46.1396 4.11123C45.0174 4.11123 43.8944 4.10093 42.7715 4.11535C42.4783 4.11947 42.3812 4.02541 42.3956 3.73432C42.4181 3.31194 42.4181 2.88865 42.3956 2.46628C42.3771 2.15047 42.4639 2.03856 42.7988 2.04543C43.8978 2.0674 44.9976 2.05367 46.0966 2.05367H46.5401C46.5401 1.68568 46.5401 1.33898 46.5401 0.991588C46.5401 0.832997 46.562 0.709421 46.7643 0.720406C47.6269 0.76915 48.4887 0.814461 49.4299 0.865265C49.3438 1.00257 49.3082 1.11242 49.233 1.17146C48.864 1.46256 48.853 1.47972 48.9596 2.02826H53.2881C53.2881 1.66508 53.2929 1.31632 53.2881 0.967561C53.2881 0.78906 53.3482 0.710794 53.5348 0.721778C54.3748 0.770523 55.2155 0.811715 56.0555 0.859086C56.0855 0.859086 56.1142 0.889295 56.2256 0.94971C56.0889 1.0678 55.998 1.19755 55.873 1.2511C55.5387 1.39459 55.6925 1.66852 55.7028 1.88409C55.7062 1.94588 55.9235 2.04474 56.0445 2.04612C57.2146 2.05847 58.384 2.06328 59.5535 2.04612C59.8617 2.04131 59.9307 2.15184 59.913 2.43607C59.8494 3.46039 59.399 3.98628 58.3888 4.06386C57.5981 4.12496 56.8004 4.10574 56.0056 4.11123C55.9154 4.1064 55.8254 4.12247 55.7424 4.15819C55.6595 4.1939 55.5858 4.2483 55.5271 4.31719C55.3221 4.52796 55.0419 4.66939 54.7753 4.81356C54.6371 4.87778 54.4884 4.91639 54.3365 4.92753C54.0358 4.96597 53.6722 5.09847 53.448 4.97833C53.2785 4.88633 53.2853 4.4648 53.2013 4.1435H51.1468L52.6299 4.54443L52.6668 4.63781C52.2622 4.77511 51.9621 5.0051 51.9047 5.47882H54.234V6.99744L54.8368 6.20861L55.2941 6.52098C55.6495 5.79806 55.9967 5.09161 56.3575 4.35632L58.2555 5.19322C58.2364 5.26874 58.2344 5.30787 58.2255 5.30924C57.7471 5.40124 57.6035 5.82209 57.3807 6.17016C57.0848 6.63495 56.7717 7.08807 56.4464 7.57345ZM54.273 10.6746C54.5375 10.6368 54.8197 10.6807 54.9503 10.5606C55.292 10.2516 55.5613 9.87405 55.849 9.53078L54.273 7.92427V10.6746ZM50.0163 9.50263V10.3141H52.1351V9.50263H50.0163ZM52.1214 7.95654V7.17183H50.0224V7.95654H52.1214ZM57.7587 9.58708C57.4853 9.9173 57.2666 10.1857 56.9829 10.5304L58.1291 10.4398L57.7587 9.58708Z" fill="#32A03D"/>
<path d="M67.0679 8.35752H80.4326C80.4326 8.78428 80.4486 9.18217 80.4326 9.57526C80.3501 11.2885 80.294 13.0044 80.1553 14.7128C80.0749 15.6907 79.8878 16.6652 79.6701 17.6245C79.5024 18.3763 78.9554 18.8739 78.1929 18.9783C77.3174 19.0979 76.4253 19.1027 75.5394 19.1343C75.4597 19.1343 75.3314 18.9831 75.2988 18.88C75.1602 18.4203 75.0555 17.9516 74.9384 17.4857C74.8885 17.2857 74.7706 17.2108 74.5543 17.2108C73.1791 17.2198 71.8031 17.2108 70.4271 17.2225C70.3148 17.2225 70.1387 17.305 70.1027 17.3936C69.8774 17.9434 69.4434 18.2025 68.8868 18.3028C68.5742 18.3591 68.2588 18.3963 67.8969 18.4492V11.6293C68.0356 11.6231 68.1604 11.6128 68.2872 11.6128C70.6718 11.6128 73.0557 11.6176 75.4396 11.6053C75.7764 11.6053 75.8894 11.6939 75.8853 12.0375C75.8673 13.5308 75.8853 15.0241 75.8686 16.5174C75.8645 16.848 75.9726 16.9298 76.2915 16.9298C77.1323 16.9236 77.3639 16.804 77.4886 15.9677C77.6564 14.8427 77.7555 13.7067 77.8394 12.5715C77.8879 11.9083 77.8477 11.239 77.8477 10.5477H66.8717C66.7968 11.1263 66.7532 11.7111 66.6402 12.2822C66.3879 13.5583 66.1674 14.8461 65.8083 16.0948C65.3841 17.5764 63.9229 18.59 62.445 18.5749C62.3209 18.5749 62.1961 18.5543 62.0249 18.5392C62.2495 18.1344 62.4595 17.7833 62.6425 17.4239C63.4744 15.7746 63.8903 14.0071 64.1821 12.2052C64.5745 9.79585 64.6542 7.36726 64.6244 4.93179C64.6119 3.86181 64.6244 2.79183 64.6188 1.72184C64.6188 1.48338 64.6882 1.39336 64.9439 1.39405C69.8545 1.40046 74.7651 1.40046 79.6757 1.39405C79.9058 1.39405 79.9945 1.46277 79.9938 1.69367C79.9897 3.42268 79.9897 5.15147 79.9938 6.88003C79.9938 7.10887 79.9009 7.20301 79.6777 7.19064C79.6084 7.18652 79.5356 7.19064 79.4642 7.19064C75.4673 7.19064 71.4699 7.18812 67.472 7.18308C67.1726 7.18308 67.0284 7.24562 67.0603 7.57067C67.0873 7.81188 67.0679 8.06202 67.0679 8.35752ZM67.079 3.47285C67.079 3.92297 67.0956 4.33255 67.0734 4.74006C67.0582 5.02663 67.1427 5.1249 67.4464 5.12421C70.5997 5.11459 73.7544 5.1194 76.907 5.12009H77.4983C77.4983 4.67272 77.4775 4.27413 77.5046 3.87899C77.5275 3.556 77.4262 3.46323 77.0942 3.46667C73.9644 3.47972 70.8347 3.47491 67.7042 3.47491L67.079 3.47285ZM73.5638 15.2241C73.5638 14.7094 73.5728 14.2187 73.5527 13.7294C73.5527 13.6703 73.3953 13.5686 73.3101 13.5672C72.3396 13.5562 71.3691 13.5562 70.3987 13.5672C70.3141 13.5672 70.1602 13.6751 70.1581 13.7377C70.138 14.2256 70.147 14.7156 70.147 15.222L73.5638 15.2241Z" fill="#32A03D"/>
<path d="M0.439453 17.7108C4.57863 15.9093 7.30476 12.9642 8.35907 8.47736H7.88531C5.9061 8.47736 3.92619 8.47117 1.94697 8.48904C1.59098 8.48904 1.47801 8.39419 1.4965 8.03404C1.52594 7.44707 1.52251 6.85736 1.4965 6.27039C1.48212 5.93773 1.57249 5.82913 1.91959 5.83119C3.9926 5.847 6.06629 5.83119 8.13931 5.84563C8.4508 5.84563 8.5357 5.76315 8.53159 5.4518C8.51311 4.00843 8.52748 2.55889 8.51105 1.11277C8.50694 0.782176 8.598 0.695573 8.93277 0.725127C9.86522 0.80898 10.8018 0.846782 11.7397 0.912077C11.8547 0.920325 11.9656 0.986996 12.0786 1.02686C11.9978 1.13133 11.9382 1.28666 11.8328 1.32928C11.6411 1.40626 11.6014 1.52035 11.6028 1.70524C11.6089 2.9754 11.6144 4.24831 11.6028 5.51572C11.6028 5.79064 11.7048 5.84494 11.954 5.84357C14.1324 5.83532 16.3115 5.84357 18.49 5.83326C18.7898 5.83326 18.9008 5.88962 18.8693 6.22434C18.7132 7.68007 17.7992 8.47736 16.2376 8.47736C14.9492 8.47736 13.6607 8.47736 12.3723 8.47736H11.9245C13.2938 12.6803 15.6023 15.9643 19.8661 17.6276C18.9329 18.2352 17.9683 18.5417 16.8866 18.4036C15.553 18.2324 14.5418 17.4702 13.5936 16.5877C12.221 15.3058 11.2659 13.7477 10.5526 12.026C10.4629 11.8102 10.3711 11.595 10.2616 11.3345C10.0562 11.8617 9.8659 12.3497 9.66668 12.8322C8.8383 14.8371 7.41362 16.3196 5.63225 17.4977C4.59027 18.185 3.4675 18.5507 2.21534 18.4407C1.5766 18.3823 0.982352 18.1926 0.439453 17.7108Z" fill="#32A03D"/>
<path d="M38.9509 0.941039C38.8891 1.01697 38.8399 1.14261 38.7643 1.16056C38.4058 1.24685 38.4557 1.51262 38.4564 1.76942C38.4564 2.73586 38.4675 3.70644 38.4516 4.67495C38.4467 4.95108 38.5209 5.07741 38.8059 5.04358C38.8771 5.03944 38.9484 5.03944 39.0195 5.04358C39.6727 5.04358 39.7005 5.07258 39.5632 5.72493C39.4349 6.33447 39.17 6.8529 38.6007 7.18494C38.5126 7.23672 38.462 7.41689 38.4585 7.53769C38.453 10.4784 38.453 13.419 38.4585 16.3592C38.4585 16.5719 38.4585 16.7845 38.4509 16.9971C38.4065 18.1782 37.9391 18.7636 36.7866 18.9893C36.2666 19.0915 35.7278 19.1067 35.1959 19.1343C35.0884 19.1398 34.9053 19.0453 34.8748 18.9569C34.6529 18.3128 34.4588 17.6577 34.2611 17.0061C34.2556 16.9867 34.2695 16.9626 34.2757 16.9322C34.7687 16.9322 35.2632 16.9177 35.7562 16.9377C36.0877 16.9508 36.234 16.8431 36.2277 16.4959C36.2118 15.5985 36.2194 14.7011 36.2159 13.8037C36.2105 13.757 36.2013 13.7108 36.1882 13.6656L34.673 14.1785C34.3305 12.4776 33.9942 10.8091 33.6488 9.09643L35.3748 8.57524L36.2035 11.6333V7.23672H33.2217C33.9845 6.67549 33.9054 5.84711 34.017 5.04289H36.2194V4.57831C36.2194 3.43308 36.2277 2.28715 36.2139 1.14192C36.2097 0.825066 36.2957 0.697357 36.6348 0.722899C37.3885 0.779505 38.1451 0.805737 38.9002 0.844395L38.9509 0.941039Z" fill="#32A03D"/>
<path d="M23.589 19.1345V12.6314C23.3238 13.1434 23.0233 13.4769 22.5744 13.6382C22.1365 13.7962 21.6586 13.8051 21.2151 13.6637C22.401 11.5736 23.1249 9.36567 23.5434 6.96893H22.1282C21.6033 6.96893 21.6033 6.96893 21.6019 6.46312C21.6019 6.00348 21.606 5.54316 21.5984 5.0849C21.5984 4.87816 21.6675 4.78927 21.8885 4.79478C22.3257 4.80649 22.7643 4.77755 23.2009 4.80236C23.5103 4.81959 23.5759 4.69555 23.5724 4.41439C23.5593 3.30561 23.5724 2.19751 23.5621 1.08873C23.5621 0.799991 23.6353 0.695936 23.9461 0.72419C24.661 0.788966 25.3793 0.815153 26.1895 0.862012C26.0721 1.01293 26.0189 1.15282 25.9284 1.18383C25.686 1.26859 25.6618 1.4264 25.6646 1.6476C25.6756 2.59031 25.6777 3.53439 25.6646 4.4771C25.6646 4.72449 25.7336 4.81407 25.9837 4.80236C26.3601 4.78444 26.7379 4.79754 27.1075 4.79754C27.3457 5.61207 26.8353 6.59267 26.0023 6.88417C25.7261 6.98133 25.6742 7.11778 25.6611 7.38584C25.5997 8.62625 26.2137 9.59927 26.8906 10.5482C27.0978 10.8342 27.3326 11.0946 27.5557 11.3668C27.1233 11.6425 26.5715 11.5129 25.6701 10.9093V11.2704C25.6701 13.108 25.6701 14.9475 25.6701 16.7888C25.6701 17.9768 25.0305 18.8348 23.962 19.0884C23.8386 19.1102 23.7141 19.1256 23.589 19.1345Z" fill="#32A03D"/>
<path d="M31.4769 5.48276H33.248C33.3681 6.35577 32.8971 7.10586 32.1175 7.30241C31.9037 7.35755 31.6844 7.38669 31.464 7.38922C29.921 7.39894 28.3772 7.39756 26.8342 7.39756C26.7568 7.39756 26.6795 7.38019 26.5444 7.36422C26.6013 7.30728 26.6611 7.2535 26.7236 7.20309C27.2142 6.86138 27.4978 6.38981 27.5378 5.78418C27.5541 5.53832 27.6498 5.46054 27.8812 5.46748C28.2985 5.47929 28.7165 5.46193 29.1345 5.46748C29.3299 5.46748 29.4399 5.40776 29.4297 5.18273C29.4181 4.92437 29.4297 4.66531 29.4297 4.36598C28.762 4.36598 28.1262 4.35 27.4924 4.37292C27.1762 4.38403 27.0547 4.28888 27.0696 3.95621C27.092 3.46171 27.0757 2.96513 27.0757 2.42826C27.7428 2.42826 28.365 2.40674 28.9879 2.4366C29.3401 2.45327 29.469 2.35048 29.4371 1.98308C29.412 1.63954 29.412 1.29456 29.4371 0.951022C29.4426 0.866985 29.5532 0.717665 29.6115 0.719748C30.3831 0.743362 31.1546 0.789199 32.0198 0.833648C31.9146 0.984359 31.8745 1.11146 31.806 1.12812C31.4722 1.22675 31.4667 1.47191 31.4728 1.76083C31.4912 2.47619 31.3541 2.42896 32.1209 2.42688C32.7092 2.42688 33.2982 2.42688 33.8811 2.42688C33.9115 2.65024 33.8979 2.87758 33.8409 3.09545C33.784 3.31331 33.6849 3.51727 33.5496 3.69523C33.4142 3.8732 33.2454 4.02156 33.053 4.13152C32.8606 4.24149 32.6486 4.31082 32.4296 4.33542C32.3489 4.34514 32.2674 4.34861 32.1867 4.35625C31.4728 4.42154 31.4728 4.42154 31.4755 5.15078C31.4776 5.23621 31.4769 5.3265 31.4769 5.48276Z" fill="#32A03D"/>
<path d="M33.5191 12.7891H30.1389C29.3994 12.7891 28.6599 12.7809 27.9203 12.7938C27.6692 12.7979 27.5548 12.738 27.5562 12.4682C27.5659 11.1058 27.5659 9.74331 27.5562 8.38087C27.5562 8.15811 27.6357 8.07159 27.868 8.07227C29.6568 8.07999 31.4458 8.08158 33.2351 8.07704C33.473 8.07704 33.5525 8.16832 33.5525 8.38155C33.5525 9.78941 33.5549 11.1984 33.5595 12.6085C33.5518 12.6698 33.5382 12.7302 33.5191 12.7891V12.7891ZM29.5543 9.74671C29.5543 10.1827 29.548 10.5764 29.5605 10.9688C29.5605 11.0254 29.6498 11.1262 29.7001 11.1269C30.2896 11.1378 30.8798 11.1344 31.484 11.1344C31.484 10.7168 31.4777 10.3564 31.484 9.99604C31.4889 9.81552 31.4142 9.74399 31.2342 9.74535C30.688 9.74944 30.141 9.74671 29.5543 9.74671Z" fill="#32A03D"/>
<path d="M32.5675 15.5467L33.8646 15.3819C34.0387 16.4276 33.5 17.303 32.4583 17.5157C31.0186 17.8097 29.5761 18.0929 28.1343 18.3767C27.907 18.4212 27.6776 18.4389 27.5404 18.6735C27.5077 18.7289 27.4039 18.7419 27.2954 18.7973C27.0448 18.0183 26.8038 17.2674 26.5444 16.4665C27.1104 16.3858 27.6367 16.3133 28.1603 16.2354C28.8757 16.1301 29.5891 16.0117 30.3059 15.918C30.538 15.8873 30.6527 15.7936 30.7059 15.5645C30.8971 14.7335 31.1039 13.9067 31.3053 13.0784L31.3736 12.7939L33.6775 13.5811C33.627 13.6632 33.6093 13.7289 33.5799 13.7343C33.0843 13.8253 33.0604 14.265 32.9212 14.6186C32.8058 14.9079 32.6993 15.1993 32.5675 15.5467Z" fill="#32A03D"/>
<path d="M28.1566 16.0993C27.945 15.2709 27.742 14.4947 27.5576 13.7134C27.543 13.6497 27.6402 13.5146 27.712 13.4923C28.154 13.3565 28.6012 13.2329 29.0532 13.1335C29.135 13.1156 29.3127 13.2131 29.3367 13.289C29.5457 13.9524 29.736 14.6215 29.9131 15.2932C29.9344 15.3728 29.8658 15.5398 29.7993 15.5634C29.2548 15.7558 28.7051 15.9228 28.1566 16.0993Z" fill="#32A03D"/>
</svg>
